<?xml version="1.0" encoding="UTF-8" standalone="no"?>
<svg
   width="74.5mm"
   height="14mm"
   viewBox="193.75 104.99999999999997 74.5 14"
   version="1.1"
   id="svg20"
   sodipodi:docname="door-lever.svg"
   inkscape:version="1.2 (1:1.2+202206011327+fc4e4096c5)"
   xmlns:inkscape="http://www.inkscape.org/namespaces/inkscape"
   xmlns:sodipodi="http://sodipodi.sourceforge.net/DTD/sodipodi-0.dtd"
   xmlns="http://www.w3.org/2000/svg"
   xmlns:svg="http://www.w3.org/2000/svg">
  <defs
     id="defs24" />
  <sodipodi:namedview
     id="namedview22"
     pagecolor="#ffffff"
     bordercolor="#666666"
     borderopacity="1.0"
     inkscape:showpageshadow="2"
     inkscape:pageopacity="0.0"
     inkscape:pagecheckerboard="0"
     inkscape:deskcolor="#d1d1d1"
     inkscape:document-units="mm"
     showgrid="false"
     inkscape:zoom="4.460119"
     inkscape:cx="140.91552"
     inkscape:cy="26.456693"
     inkscape:window-width="1920"
     inkscape:window-height="1051"
     inkscape:window-x="1920"
     inkscape:window-y="0"
     inkscape:window-maximized="1"
     inkscape:current-layer="svg20" />
  <title
     id="title14">svgOutput</title>
  <desc
     id="desc16">made with tinkercad</desc>
  <path
     d="M 198.89599609375 106.29399871826169 L 200.25 106.07928466796872 L 200.25 105.99999999999997 L 200.7530059814453 105.99999999999997 L 257.74798583984375 105.99999999999997 L 260.25 105.99999999999997 L 260.25 106.158576965332 L 261.25 105.99999999999997 L 263.10400390625 106.29399871826169 L 264.75299072265625 107.13378143310544 L 264.7770080566406 107.1460037231445 L 266.10400390625 108.47299957275388 L 266.95599365234375 110.1460037231445 L 267.25 111.99999999999997 L 266.95599365234375 113.85399627685544 L 266.5312805175781 114.68800354003903 L 266.1162109375 115.50299835205075 L 266.10400390625 115.52700042724607 L 264.7770080566406 116.85399627685544 L 263.10400390625 117.70600128173825 L 261.25 117.99999999999997 L 260.25 117.84142303466794 L 260.25 117.99999999999997 L 257.74798583984375 117.99999999999997 L 200.25 117.99999999999997 L 200.25 117.92071533203122 L 198.89599609375 117.70600128173825 L 197.22300720214844 116.85399627685544 L 195.89599609375 115.52700042724607 L 195.46871948242188 114.68800354003903 L 195.04400634765625 113.85399627685544 L 194.75 111.99999999999997 L 195.04400634765625 110.1460037231445 L 195.89599609375 108.47299957275388 L 197.22300720214844 107.1460037231445 L 197.7480010986328 106.87863922119138 L 198.89599609375 106.29399871826169 M 197.8209991455078 111.53600311279294 L 197.7480010986328 111.99999999999997 L 197.8209991455078 112.463996887207 L 198.03399658203125 112.88300323486325 L 198.36700439453125 113.21600341796872 L 198.656005859375 113.36291503906247 L 198.78599548339844 113.42900085449216 L 199.25 113.50299835205075 L 199.71400451660156 113.42900085449216 L 200.13299560546875 113.21600341796872 L 200.25 113.09899902343747 L 200.46600341796875 112.88300323486325 L 200.6790008544922 112.463996887207 L 200.70399475097656 112.30724334716794 L 200.7530059814453 111.99999999999997 L 200.70399475097656 111.692756652832 L 200.6790008544922 111.53600311279294 L 200.46600341796875 111.11699676513669 L 200.25 110.90100097656247 L 200.13299560546875 110.78399658203122 L 199.75531005859375 110.59200286865232 L 199.71400451660156 110.57099914550778 L 199.25 110.49800109863278 L 198.78599548339844 110.57099914550778 L 198.74468994140625 110.59200286865232 L 198.656005859375 110.63708496093747 L 198.36700439453125 110.78399658203122 L 198.03399658203125 111.11699676513669 L 197.8209991455078 111.53600311279294 M 262.3320007324219 108.66899871826169 L 261.25 108.49800109863278 L 260.25 108.65604400634763 L 260.1679992675781 108.66899871826169 L 259.1910095214844 109.16600036621091 L 258.4159851074219 109.94100189208982 L 257.91900634765625 110.9179992675781 L 257.74798583984375 111.99999999999997 L 257.91900634765625 113.08200073242185 L 258.4159851074219 114.05899810791013 L 259.0450134277344 114.68800354003903 L 259.1910095214844 114.83399963378903 L 260.1679992675781 115.33100128173825 L 260.25 115.34403228759763 L 261.25 115.50299835205075 L 262.3320007324219 115.33100128173825 L 263.3089904785156 114.83399963378903 L 263.4549865722656 114.68800354003903 L 264.0840148925781 114.05899810791013 L 264.58099365234375 113.08200073242185 L 264.75299072265625 111.99999999999997 L 264.58099365234375 110.9179992675781 L 264.0840148925781 109.94100189208982 L 263.3089904785156 109.16600036621091 L 262.3320007324219 108.66899871826169 z"
     fill="none"
     stroke="rgb(255,0,0)"
     stroke-width="0.001mm"
     id="path18"
     style="fill:#00ffff" />
</svg>
