<?xml version="1.0" encoding="UTF-8" standalone="no"?>
<svg
   width="97mm"
   height="115mm"
   viewBox="403 -309.99999999999994 97 115"
   version="1.1"
   id="svg8"
   sodipodi:docname="door.svg"
   inkscape:version="1.2 (1:1.2+202206011327+fc4e4096c5)"
   xmlns:inkscape="http://www.inkscape.org/namespaces/inkscape"
   xmlns:sodipodi="http://sodipodi.sourceforge.net/DTD/sodipodi-0.dtd"
   xmlns="http://www.w3.org/2000/svg"
   xmlns:svg="http://www.w3.org/2000/svg">
  <defs
     id="defs12" />
  <sodipodi:namedview
     id="namedview10"
     pagecolor="#ffffff"
     bordercolor="#666666"
     borderopacity="1.0"
     inkscape:showpageshadow="2"
     inkscape:pageopacity="0.0"
     inkscape:pagecheckerboard="0"
     inkscape:deskcolor="#d1d1d1"
     inkscape:document-units="mm"
     showgrid="false"
     inkscape:zoom="1.085942"
     inkscape:cx="183.71146"
     inkscape:cy="178.64674"
     inkscape:window-width="1920"
     inkscape:window-height="1051"
     inkscape:window-x="1920"
     inkscape:window-y="0"
     inkscape:window-maximized="1"
     inkscape:current-layer="svg8" />
  <title
     id="title2">svgOutput</title>
  <desc
     id="desc4">made with tinkercad</desc>
  <path
     d="M 404.20001220703125 -306.67300415039057 L 404.2005920410156 -306.68798828124994 L 404.2070007324219 -306.8479919433593 L 404.2090148925781 -306.8729858398437 L 404.2099914550781 -306.8980102539062 L 404.21368408203125 -306.94400024414057 L 404.21600341796875 -306.9729919433593 L 404.2179870605469 -306.9989929199218 L 404.2239990234375 -307.07400512695307 L 404.2242431640625 -307.0759887695312 L 404.22698974609375 -307.09899902343744 L 404.22900390625 -307.1239929199218 L 404.2381286621094 -307.2000122070312 L 404.25 -307.2990112304687 L 404.2539978027344 -307.32400512695307 L 404.2569885253906 -307.34899902343744 L 404.27410888671875 -307.4559936523437 L 404.2770080566406 -307.47399902343744 L 404.281005859375 -307.49999999999994 L 404.28179931640625 -307.5039978027343 L 404.2860107421875 -307.5249938964843 L 404.2900085449219 -307.5499877929687 L 404.31500244140625 -307.6749877929687 L 404.3210144042969 -307.7000122070312 L 404.3233947753906 -307.7120056152343 L 404.32598876953125 -307.72500610351557 L 404.3500061035156 -307.8250122070312 L 404.35699462890625 -307.85000610351557 L 404.3630065917969 -307.87499999999994 L 404.3890380859375 -307.9679870605468 L 404.3909912109375 -307.97500610351557 L 404.39898681640625 -308.00100708007807 L 404.406005859375 -308.02600097656244 L 404.42401123046875 -308.0822448730468 L 404.42999267578125 -308.1010131835937 L 404.4389953613281 -308.12600708007807 L 404.4469909667969 -308.15100097656244 L 404.45599365234375 -308.1759948730468 L 404.46600341796875 -308.2009887695312 L 404.4742736816406 -308.22399902343744 L 404.4750061035156 -308.2260131835937 L 404.4800109863281 -308.2384948730468 L 404.5050048828125 -308.3009948730468 L 404.54901123046875 -308.40100097656244 L 404.5610046386719 -308.4259948730468 L 404.5740051269531 -308.4509887695312 L 404.58599853515625 -308.4760131835937 L 404.5881652832031 -308.48001098632807 L 404.6000061035156 -308.5020141601562 L 404.6130065917969 -308.52700805664057 L 404.625 -308.5484313964843 L 404.62701416015625 -308.55200195312494 L 404.6570129394531 -308.6019897460937 L 404.6730041503906 -308.6270141601562 L 404.7070007324219 -308.67700195312494 L 404.7250061035156 -308.7019958496093 L 404.7439880371094 -308.7269897460937 L 404.7511901855469 -308.73599243164057 L 404.7640075683594 -308.7520141601562 L 404.7860107421875 -308.77700805664057 L 404.8089904785156 -308.80200195312494 L 404.8330078125 -308.8269958496093 L 404.8599853515625 -308.8519897460937 L 404.8890075683594 -308.8770141601562 L 404.9209899902344 -308.90200805664057 L 404.9580078125 -308.92700195312494 L 405.00299072265625 -308.9519958496093 L 405.0610046386719 -308.9769897460937 L 405.18572998046875 -308.99999999999994 L 405.2019958496094 -308.99999999999994 L 454.20001220703125 -308.99999999999994 L 454.20001220703125 -306.4979858398437 L 454.20001220703125 -253.99999999999994 L 499 -253.99999999999994 L 499 -251.49800109863276 L 499 -195.99999999999994 L 404 -195.99999999999994 L 404 -251.49800109863276 L 404 -251.59800720214838 L 404.0010070800781 -251.62300109863276 L 404.00299072265625 -251.64799499511713 L 404.0039978027344 -251.67300415039057 L 404.0069885253906 -251.69799804687494 L 404.0090026855469 -251.72300720214838 L 404.02099609375 -251.82299804687494 L 404.02899169921875 -251.87300109863276 L 404.03399658203125 -251.89799499511713 L 404.03497314453125 -251.90400695800776 L 404.0379943847656 -251.92300415039057 L 404.04400634765625 -251.94799804687494 L 404.04901123046875 -251.97300720214838 L 404.0539855957031 -251.99899291992182 L 404.0552062988281 -252.00399780273432 L 404.0660095214844 -252.04899597167963 L 404.093994140625 -252.14900207519526 L 404.0975341796875 -252.16000366210932 L 404.1099853515625 -252.19900512695307 L 404.1180114746094 -252.22399902343744 L 404.135986328125 -252.27400207519526 L 404.14599609375 -252.29899597167963 L 404.1549987792969 -252.32400512695307 L 404.1650085449219 -252.34899902343744 L 404.1759948730469 -252.37399291992182 L 404.1860046386719 -252.39900207519526 L 404.1934814453125 -252.41600036621088 L 404.1969909667969 -252.42399597167963 L 404.2090148925781 -252.44900512695307 L 404.2200012207031 -252.47399902343744 L 404.2330017089844 -252.49999999999994 L 404.2449951171875 -252.52499389648432 L 404.2512512207031 -252.5370025634765 L 404.27099609375 -252.57499694824213 L 404.31298828125 -252.64999389648432 L 404.3262023925781 -252.67199707031244 L 404.3429870605469 -252.69999694824213 L 404.3909912109375 -252.77499389648432 L 404.42498779296875 -252.82499694824213 L 404.4429931640625 -252.85000610351557 L 404.4620056152344 -252.87499999999994 L 404.4800109863281 -252.89999389648432 L 404.5 -252.92500305175776 L 404.5022888183594 -252.927993774414 L 404.5190124511719 -252.94999694824213 L 404.5400085449219 -252.97500610351557 L 404.5610046386719 -253.00100708007807 L 404.5820007324219 -253.02600097656244 L 404.6004943847656 -253.04699707031244 L 404.6260070800781 -253.07600402832026 L 404.6499938964844 -253.10099792480463 L 404.6730041503906 -253.12600708007807 L 404.697998046875 -253.15100097656244 L 404.7229919433594 -253.17599487304682 L 404.7313232421875 -253.18400573730463 L 404.7749938964844 -253.22599792480463 L 404.802001953125 -253.25100708007807 L 404.8299865722656 -253.27600097656244 L 404.8590087890625 -253.30099487304682 L 404.91900634765625 -253.35099792480463 L 404.9830017089844 -253.40100097656244 L 404.99200439453125 -253.40782165527338 L 405.0159912109375 -253.42599487304682 L 405.0356140136719 -253.4400024414062 L 405.0509948730469 -253.45100402832026 L 405.0870056152344 -253.47599792480463 L 405.1239929199219 -253.50199890136713 L 405.1323547363281 -253.5075073242187 L 405.1619873046875 -253.5269927978515 L 405.20098876953125 -253.55200195312494 L 405.24200439453125 -253.57699584960932 L 405.2850036621094 -253.60200500488276 L 405.3299865722656 -253.62699890136713 L 405.3760070800781 -253.6519927978515 L 405.42498779296875 -253.67700195312494 L 405.47601318359375 -253.70199584960932 L 405.5039978027344 -253.71520996093744 L 405.52899169921875 -253.72700500488276 L 405.5849914550781 -253.75199890136713 L 405.6449890136719 -253.7769927978515 L 405.7090148925781 -253.80200195312494 L 405.77801513671875 -253.82699584960932 L 405.85198974609375 -253.85200500488276 L 405.9339904785156 -253.87699890136713 L 406.02398681640625 -253.9019927978515 L 406.12799072265625 -253.92700195312494 L 406.25201416015625 -253.95199584960932 L 406.4150085449219 -253.97700500488276 L 406.76708984375 -253.99999999999994 L 406.81298828125 -254.00300598144526 L 406.58453369140625 -254.00300598144526 L 405.5039978027344 -254.00300598144526 L 404.20001220703125 -254.00300598144526 L 404.20001220703125 -306.4979858398437 L 404.20001220703125 -306.6480102539062 L 404.20001220703125 -306.67300415039057 z"
     fill="none"
     stroke="rgb(255,0,0)"
     stroke-width="0.001mm"
     id="path6"
     style="fill:#00ffff" />
</svg>
