<?xml version="1.0" encoding="UTF-8" standalone="no"?>
<svg
   width="202mm"
   height="191.99999999999994mm"
   viewBox="85 -250.99999999999994 202 191.99999999999994"
   version="1.1"
   id="svg142"
   sodipodi:docname="poke-assembly.svg"
   inkscape:version="1.2 (1:1.2+202206011327+fc4e4096c5)"
   xmlns:inkscape="http://www.inkscape.org/namespaces/inkscape"
   xmlns:sodipodi="http://sodipodi.sourceforge.net/DTD/sodipodi-0.dtd"
   xmlns="http://www.w3.org/2000/svg"
   xmlns:svg="http://www.w3.org/2000/svg">
  <defs
     id="defs146" />
  <sodipodi:namedview
     id="namedview144"
     pagecolor="#ffffff"
     bordercolor="#666666"
     borderopacity="1.0"
     inkscape:showpageshadow="2"
     inkscape:pageopacity="0.0"
     inkscape:pagecheckerboard="0"
     inkscape:deskcolor="#d1d1d1"
     inkscape:document-units="mm"
     showgrid="false"
     inkscape:zoom="0.32521701"
     inkscape:cx="382.8213"
     inkscape:cy="362.83465"
     inkscape:window-width="1920"
     inkscape:window-height="1051"
     inkscape:window-x="1920"
     inkscape:window-y="0"
     inkscape:window-maximized="1"
     inkscape:current-layer="svg142" />
  <title
     id="title136">svgOutput</title>
  <desc
     id="desc138">made with tinkercad</desc>
  <path
     d="M 94 -94.99999999999999 L 94 -95.99999999999997 L 94 -125.99999999999997 L 94 -129.99999999999997 L 118 -129.99999999999997 L 118 -125.99999999999997 L 118 -97.14800262451169 L 118 -95.99999999999997 L 118 -94.99999999999999 L 94 -94.99999999999999 M 120 -93.99999999999999 L 120 -95.99999999999997 L 120 -125.99999999999997 L 120 -128.99999999999997 L 144 -128.99999999999997 L 144 -125.99999999999997 L 144 -96.14800262451169 L 144 -95.99999999999997 L 144 -93.99999999999999 L 120 -93.99999999999999 M 246 -179.99999999999997 L 246 -189.99999999999997 L 246 -219.99999999999994 L 249.197998046875 -219.99999999999994 L 271.50299072265625 -219.99999999999994 L 281 -219.99999999999994 L 281 -189.99999999999997 L 281 -179.99999999999997 L 246 -179.99999999999997 M 122 -167.99999999999997 L 105.99800109863281 -167.99999999999997 L 98 -167.99999999999997 L 98 -176.99999999999997 L 98 -189.99999999999997 L 98 -202.99999999999994 L 122 -202.99999999999994 L 122 -189.99999999999997 L 122 -176.99999999999997 L 122 -170.14799499511716 L 122 -167.99999999999997 M 148 -166.99999999999997 L 131.9980010986328 -166.99999999999997 L 124 -166.99999999999997 L 124 -176.99999999999997 L 124 -189.99999999999997 L 124 -201.99999999999994 L 148 -201.99999999999994 L 148 -189.99999999999997 L 148 -176.99999999999997 L 148 -169.14799499511716 L 148 -166.99999999999997 M 179 -146.99999999999997 L 179 -176.99999999999997 L 214 -176.99999999999997 L 214 -146.99999999999997 L 179 -146.99999999999997 M 231 -123.49999999999997 L 231 -125.99999999999997 L 231 -146.99999999999997 L 231 -163.49999999999997 L 254.197998046875 -163.49999999999997 L 276.50299072265625 -163.49999999999997 L 286 -163.49999999999997 L 286 -146.99999999999997 L 286 -125.99999999999997 L 286 -123.49999999999997 L 231 -123.49999999999997 M 200 -125.99999999999997 L 200 -103.49800109863278 L 200 -95.99999999999997 L 177.4980010986328 -95.99999999999997 L 170 -95.99999999999997 L 170 -125.99999999999997 L 177.4980010986328 -125.99999999999997 L 192.5030059814453 -125.99999999999997 L 200 -125.99999999999997 M 117 -219.99999999999994 L 117 -249.99999999999994 L 152 -249.99999999999994 L 152 -219.99999999999994 L 148 -219.99999999999994 L 124 -219.99999999999994 L 122 -219.99999999999994 L 117 -219.99999999999994 M 201 -219.99999999999994 L 201 -197.49800109863276 L 201 -189.99999999999997 L 178.4980010986328 -189.99999999999997 L 171 -189.99999999999997 L 171 -219.99999999999994 L 178.4980010986328 -219.99999999999994 L 193.5030059814453 -219.99999999999994 L 201 -219.99999999999994 M 122 -59.999999999999986 L 122 -89.99999999999999 L 144 -89.99999999999999 L 157 -89.99999999999999 L 157 -59.999999999999986 L 122 -59.999999999999986 M 86 -59.999999999999986 L 86 -89.99999999999999 L 94 -89.99999999999999 L 118 -89.99999999999999 L 120 -89.99999999999999 L 121 -89.99999999999999 L 121 -59.999999999999986 L 86 -59.999999999999986 M 107.25900268554688 -176.99999999999997 L 106.76200103759766 -176.50300598144528 L 106.19300079345703 -175.3869934082031 L 105.99800109863281 -174.14999389648435 L 106.19300079345703 -172.9129943847656 L 106.64218139648438 -172.03199768066403 L 106.76200103759766 -171.79699707031247 L 107.64700317382812 -170.91200256347653 L 108.76300048828125 -170.3430023193359 L 110 -170.14799499511716 L 111.23699951171875 -170.3430023193359 L 112.35299682617188 -170.91200256347653 L 113.23799896240234 -171.79699707031247 L 113.35781860351562 -172.03199768066403 L 113.80699920654297 -172.9129943847656 L 114.00299835205078 -174.14999389648435 L 113.80699920654297 -175.3869934082031 L 113.23799896240234 -176.50300598144528 L 112.74099731445312 -176.99999999999997 L 112.35299682617188 -177.38800048828122 L 111.23699951171875 -177.95700073242185 L 110 -178.15299987792966 L 108.76300048828125 -177.95700073242185 L 107.64700317382812 -177.38800048828122 L 107.25900268554688 -176.99999999999997 M 136.9656219482422 -176.99999999999997 L 136 -177.15299987792966 L 135.0343780517578 -176.99999999999997 L 134.76300048828125 -176.95700073242185 L 133.64700317382812 -176.38800048828122 L 132.76199340820312 -175.50300598144528 L 132.1929931640625 -174.3869934082031 L 131.9980010986328 -173.14999389648435 L 132.1742401123047 -172.03199768066403 L 132.1929931640625 -171.9129943847656 L 132.76199340820312 -170.79699707031247 L 133.64700317382812 -169.91200256347653 L 134.76300048828125 -169.3430023193359 L 136 -169.14799499511716 L 137.23699951171875 -169.3430023193359 L 138.35299682617188 -169.91200256347653 L 139.23800659179688 -170.79699707031247 L 139.8070068359375 -171.9129943847656 L 139.8258514404297 -172.03199768066403 L 140.0030059814453 -173.14999389648435 L 139.8070068359375 -174.3869934082031 L 139.23800659179688 -175.50300598144528 L 138.35299682617188 -176.38800048828122 L 137.23699951171875 -176.95700073242185 L 136.9656219482422 -176.99999999999997 M 104.76300048828125 -97.34300231933591 L 106 -97.14800262451169 L 107.23699951171875 -97.34300231933591 L 108.35299682617188 -97.91200256347653 L 108.74500274658203 -98.30400085449216 L 109.23799896240234 -98.79699707031247 L 109.80699920654297 -99.91300201416013 L 110.00299835205078 -101.15000152587888 L 109.80699920654297 -102.38700103759763 L 109.23799896240234 -103.50299835205075 L 108.35299682617188 -104.38800048828122 L 107.23699951171875 -104.95700073242185 L 106 -105.15299987792966 L 104.76300048828125 -104.95700073242185 L 103.64700317382812 -104.38800048828122 L 102.76200103759766 -103.50299835205075 L 102.19300079345703 -102.38700103759763 L 101.99800109863281 -101.15000152587888 L 102.19300079345703 -99.91300201416013 L 102.76200103759766 -98.79699707031247 L 103.25499725341797 -98.30400085449216 L 103.64700317382812 -97.91200256347653 L 104.76300048828125 -97.34300231933591 M 130.76300048828125 -96.34300231933591 L 132 -96.14800262451169 L 133.23699951171875 -96.34300231933591 L 134.35299682617188 -96.91200256347653 L 135.23800659179688 -97.79699707031247 L 135.49649047851562 -98.30400085449216 L 135.8070068359375 -98.91300201416013 L 136.0030059814453 -100.15000152587888 L 135.8070068359375 -101.38700103759763 L 135.23800659179688 -102.50299835205075 L 134.35299682617188 -103.38800048828122 L 133.23699951171875 -103.95700073242185 L 132 -104.15299987792966 L 130.76300048828125 -103.95700073242185 L 129.64700317382812 -103.38800048828122 L 128.76199340820312 -102.50299835205075 L 128.1929931640625 -101.38700103759763 L 127.99800109863281 -100.15000152587888 L 128.1929931640625 -98.91300201416013 L 128.50350952148438 -98.30400085449216 L 128.76199340820312 -97.79699707031247 L 129.64700317382812 -96.91200256347653 L 130.76300048828125 -96.34300231933591 M 177.86500549316406 -113.318000793457 L 177.4980010986328 -110.99999999999997 L 177.86500549316406 -108.68199920654294 L 178.92999267578125 -106.5899963378906 L 180.58999633789062 -104.93000030517575 L 182.6820068359375 -103.8649978637695 L 185 -103.49800109863278 L 187.3179931640625 -103.8649978637695 L 189.41000366210938 -104.93000030517575 L 191.07000732421875 -106.5899963378906 L 192.13499450683594 -108.68199920654294 L 192.5030059814453 -110.99999999999997 L 192.13499450683594 -113.318000793457 L 191.43756103515625 -114.68800354003903 L 191.07000732421875 -115.41000366210935 L 189.41000366210938 -117.06999969482419 L 187.3179931640625 -118.13500213623044 L 185 -118.50299835205075 L 182.6820068359375 -118.13500213623044 L 180.58999633789062 -117.06999969482419 L 178.92999267578125 -115.41000366210935 L 178.56243896484375 -114.68800354003903 L 177.86500549316406 -113.318000793457 M 193.47125244140625 -204.80000305175776 L 193.5030059814453 -204.99999999999994 L 193.13499450683594 -207.31799316406244 L 192.07000732421875 -209.41000366210932 L 190.41000366210938 -211.0700073242187 L 188.3179931640625 -212.13499450683588 L 186 -212.50300598144526 L 183.6820068359375 -212.13499450683588 L 181.58999633789062 -211.0700073242187 L 179.92999267578125 -209.41000366210932 L 178.86500549316406 -207.31799316406244 L 178.4980010986328 -204.99999999999994 L 178.5296630859375 -204.80000305175776 L 178.86500549316406 -202.68200683593744 L 179.92999267578125 -200.58999633789057 L 181.58999633789062 -198.9299926757812 L 183.6820068359375 -197.865005493164 L 186 -197.49800109863276 L 188.3179931640625 -197.865005493164 L 190.41000366210938 -198.9299926757812 L 192.07000732421875 -200.58999633789057 L 193.13499450683594 -202.68200683593744 L 193.47125244140625 -204.80000305175776 M 276.50299072265625 -135.99800109863278 L 276.50299072265625 -146.99999999999997 L 276.50299072265625 -147.90299987792966 L 254.197998046875 -147.90299987792966 L 254.197998046875 -146.99999999999997 L 254.197998046875 -135.99800109863278 L 276.50299072265625 -135.99800109863278 M 249.197998046875 -204.40299987792963 L 249.197998046875 -192.49800109863276 L 271.50299072265625 -192.49800109863276 L 271.50299072265625 -204.40299987792963 L 249.197998046875 -204.40299987792963 z"
     fill="none"
     stroke="rgb(255,0,0)"
     stroke-width="0.001mm"
     id="path140"
     style="fill:#00ffff" />
</svg>
