<?xml version="1.0" standalone="no"?>
<!DOCTYPE svg PUBLIC "-//W3C//DTD SVG 1.1//EN"
  "http://www.w3.org/Graphics/SVG/1.1/DTD/svg11.dtd">
<svg width="256.9970016479492mm" height="211.99999999999994mm" viewBox="-139 -108.99999999999997 256.9970016479492 211.99999999999994" xmlns="http://www.w3.org/2000/svg" version="1.1">
	<title>svgOutput</title>
	<desc>made with tinkercad</desc>
<path d="M 13 -107.99999999999997 L 33 -107.99999999999997 L 33 -103.99999999999997 L 33 -99.00299835205075 L 33 -67.99999999999999 L 13 -67.99999999999999 L 13 -99.00299835205075 L 13 -103.99999999999997 L 13 -107.99999999999997 M -25 -107.99999999999997 L -5 -107.99999999999997 L -5 -103.99999999999997 L -5 -99.00299835205075 L -5 -67.99999999999999 L -6 -67.99999999999999 L -25 -67.99999999999999 L -25 -99.00299835205075 L -25 -103.99999999999997 L -25 -107.99999999999997 M 116.99700164794922 56.99499893188475 L 71 56.99499893188475 L 55 56.99499893188475 L 53 56.99499893188475 L 13 56.99499893188475 L 9 56.99499893188475 L 7 56.99499893188475 L -6 56.99499893188475 L -6 -48.999999999999986 L -5 -48.999999999999986 L 13 -48.999999999999986 L 33 -48.999999999999986 L 71 -48.999999999999986 L 116.99700164794922 -48.999999999999986 L 116.99700164794922 56.99499893188475 M -33 82.99999999999999 L -31 82.99999999999999 L -25 82.99999999999999 L -6 82.99999999999999 L 7 82.99999999999999 L 7 87.99999999999999 L -6 87.99999999999999 L -25 87.99999999999999 L -31 87.99999999999999 L -33 87.99999999999999 L -33 82.99999999999999 M -31 94.99999999999999 L -25 94.99999999999999 L -6 94.99999999999999 L 7 94.99999999999999 L 9 94.99999999999999 L 9 99.99999999999997 L 7 99.99999999999997 L -6 99.99999999999997 L -25 99.99999999999997 L -31 99.99999999999997 L -31 94.99999999999999 M -31 76.99999999999999 L -33 76.99999999999999 L -33 71.99999999999999 L -25 71.99999999999999 L -6 71.99999999999999 L 7 71.99999999999999 L 7 76.99999999999999 L -6 76.99999999999999 L -25 76.99999999999999 L -31 76.99999999999999 M 55 99.99999999999997 L 53 99.99999999999997 L 15 99.99999999999997 L 15 94.99999999999999 L 53 94.99999999999999 L 55 94.99999999999999 L 55 99.99999999999997 M 13 82.99999999999999 L 15 82.99999999999999 L 53 82.99999999999999 L 53 87.99999999999999 L 15 87.99999999999999 L 13 87.99999999999999 L 13 82.99999999999999 M 15 76.99999999999999 L 13 76.99999999999999 L 13 71.99999999999999 L 53 71.99999999999999 L 53 76.99999999999999 L 15 76.99999999999999 M -138 101.99999999999997 L -138 -103.99999999999997 L -51.75299835205078 -103.99999999999997 L -51.75299835205078 -99.00299835205075 L -51.75299835205078 101.99999999999997 L -138 101.99999999999997 z" fill="none" stroke="rgb(255,0,0)" stroke-width="0.001mm" />
</svg>