999
dxflib 3.26.4.0
  0
SECTION
  2
HEADER
  9
$ACADVER
  1
AC1015
  9
$HANDSEED
  5
FFFF
  9
$DIMADEC
 70
0
  9
$DIMASZ
 40
2.5
  9
$DIMATFIT
 70
0
  9
$DIMAUNIT
 70
0
  9
$DIMAZIN
 70
2
  9
$DIMBLK
  1

  9
$DIMDEC
 70
4
  9
$DIMDLI
 40
5.0
  9
$DIMDSEP
 70
46
  9
$DIMEXE
 40
1.25
  9
$DIMEXO
 40
0.625
  9
$DIMGAP
 40
0.625
  9
$DIMLFAC
 40
1.0
  9
$DIMLUNIT
 70
2
  9
$DIMSCALE
 40
1.0
  9
$DIMTAD
 70
1
  9
$DIMTIH
 70
0
  9
$DIMTSZ
 40
0.0
  9
$DIMTXT
 40
2.5
  9
$DIMZIN
 70
8
  9
$DWGCODEPAGE
  3
ANSI_1252
  9
$INSUNITS
 70
4
  9
$LTSCALE
 40
1.0
  9
$MAXACTVP
 70
64
  9
$MEASUREMENT
 70
1
  9
$MIRRTEXT
 70
0
  9
$PDMODE
 70
0
  9
$PDSIZE
 40
0.0
  0
ENDSEC
  0
SECTION
  2
TABLES
  0
TABLE
  2
VPORT
  5
8
100
AcDbSymbolTable
 70
1
  0
VPORT
  5
30
100
AcDbSymbolTableRecord
100
AcDbViewportTableRecord
  2
*Active
 70
0
 10
0.0
 20
0.0
 11
1.0
 21
1.0
 12
286.3055555555554861
 22
148.5
 13
0.0
 23
0.0
 14
10.0
 24
10.0
 15
10.0
 25
10.0
 16
0.0
 26
0.0
 36
1.0
 17
0.0
 27
0.0
 37
0.0
 40
297.0
 41
1.92798353909465
 42
50.0
 43
0.0
 44
0.0
 50
0.0
 51
0.0
 71
0
 72
100
 73
1
 74
3
 75
1
 76
1
 77
0
 78
0
281
0
 65
1
110
0.0
120
0.0
130
0.0
111
1.0
121
0.0
131
0.0
112
0.0
122
1.0
132
0.0
 79
0
146
0.0
  0
ENDTAB
  0
TABLE
  2
LTYPE
  5
5
100
AcDbSymbolTable
 70
41
  0
LTYPE
  5
16
100
AcDbSymbolTableRecord
100
AcDbLinetypeTableRecord
  2
Continuous
 70
0
  3
Solid line
 72
65
 73
0
 40
0.0
  0
LTYPE
  5
31
100
AcDbSymbolTableRecord
100
AcDbLinetypeTableRecord
  2
ACAD_ISO13W100
 70
0
  3
ISO double-dash double-dot __ __ . . __ __ . . _
 72
65
 73
8
 40
36.0
 49
12.0
 74
0
 49
-3.0
 74
0
 49
12.0
 74
0
 49
-3.0
 74
0
 49
0.0
 74
0
 49
-3.0
 74
0
 49
0.0
 74
0
 49
-3.0
 74
0
  0
LTYPE
  5
32
100
AcDbSymbolTableRecord
100
AcDbLinetypeTableRecord
  2
DOT
 70
0
  3
Dot . . . . . . . . . . . . . . . . . . . . . . . .
 72
65
 73
2
 40
6.3499999999999996
 49
0.0
 74
0
 49
-6.3499999999999996
 74
0
  0
LTYPE
  5
33
100
AcDbSymbolTableRecord
100
AcDbLinetypeTableRecord
  2
BORDERX2
 70
0
  3
Border (2x) ____  ____  .  ____  ____  .  ___
 72
65
 73
6
 40
88.8999999999999915
 49
25.3999999999999986
 74
0
 49
-12.6999999999999993
 74
0
 49
25.3999999999999986
 74
0
 49
-12.6999999999999993
 74
0
 49
0.0
 74
0
 49
-12.6999999999999993
 74
0
  0
LTYPE
  5
34
100
AcDbSymbolTableRecord
100
AcDbLinetypeTableRecord
  2
DIVIDEX2
 70
0
  3
Divide (2x) ________  .  .  ________  .  .  _
 72
65
 73
6
 40
63.5
 49
25.3999999999999986
 74
0
 49
-12.6999999999999993
 74
0
 49
0.0
 74
0
 49
-12.6999999999999993
 74
0
 49
0.0
 74
0
 49
-12.6999999999999993
 74
0
  0
LTYPE
  5
35
100
AcDbSymbolTableRecord
100
AcDbLinetypeTableRecord
  2
HIDDEN
 70
0
  3
Hidden __ __ __ __ __ __ __ __ __ __ __ __ __ __
 72
65
 73
2
 40
9.5249999999999986
 49
6.3499999999999996
 74
0
 49
-3.1749999999999998
 74
0
  0
LTYPE
  5
36
100
AcDbSymbolTableRecord
100
AcDbLinetypeTableRecord
  2
BORDER2
 70
0
  3
Border (.5x) __.__.__.__.__.__.__.__.__.__.__.
 72
65
 73
6
 40
22.2249999999999979
 49
6.3499999999999996
 74
0
 49
-3.1749999999999998
 74
0
 49
6.3499999999999996
 74
0
 49
-3.1749999999999998
 74
0
 49
0.0
 74
0
 49
-3.1749999999999998
 74
0
  0
LTYPE
  5
37
100
AcDbSymbolTableRecord
100
AcDbLinetypeTableRecord
  2
DOTX2
 70
0
  3
Dot (2x) .  .  .  .  .  .  .  .  .  .  .  .  .  .
 72
65
 73
2
 40
12.6999999999999993
 49
0.0
 74
0
 49
-12.6999999999999993
 74
0
  0
LTYPE
  5
38
100
AcDbSymbolTableRecord
100
AcDbLinetypeTableRecord
  2
ACAD_ISO05W100
 70
0
  3
ISO long-dash double-dot ____ .. ____ .. ____ . 
 72
65
 73
6
 40
33.0
 49
24.0
 74
0
 49
-3.0
 74
0
 49
0.0
 74
0
 49
-3.0
 74
0
 49
0.0
 74
0
 49
-3.0
 74
0
  0
LTYPE
  5
39
100
AcDbSymbolTableRecord
100
AcDbLinetypeTableRecord
  2
ACAD_ISO15W100
 70
0
  3
ISO double-dash triple-dot __ __ . . . __ __ . .
 72
65
 73
10
 40
39.0
 49
12.0
 74
0
 49
-3.0
 74
0
 49
12.0
 74
0
 49
-3.0
 74
0
 49
0.0
 74
0
 49
-3.0
 74
0
 49
0.0
 74
0
 49
-3.0
 74
0
 49
0.0
 74
0
 49
-3.0
 74
0
  0
LTYPE
  5
3A
100
AcDbSymbolTableRecord
100
AcDbLinetypeTableRecord
  2
ACAD_ISO03W100
 70
0
  3
ISO dash space __    __    __    __    __    __
 72
65
 73
2
 40
30.0
 49
12.0
 74
0
 49
-18.0
 74
0
  0
LTYPE
  5
3B
100
AcDbSymbolTableRecord
100
AcDbLinetypeTableRecord
  2
DOT2
 70
0
  3
Dot (.5x) ........................................
 72
65
 73
2
 40
3.1749999999999998
 49
0.0
 74
0
 49
-3.1749999999999998
 74
0
  0
LTYPE
  5
3C
100
AcDbSymbolTableRecord
100
AcDbLinetypeTableRecord
  2
BORDER
 70
0
  3
Border __ __ . __ __ . __ __ . __ __ . __ __ .
 72
65
 73
6
 40
44.4499999999999957
 49
12.6999999999999993
 74
0
 49
-6.3499999999999996
 74
0
 49
12.6999999999999993
 74
0
 49
-6.3499999999999996
 74
0
 49
0.0
 74
0
 49
-6.3499999999999996
 74
0
  0
LTYPE
  5
3D
100
AcDbSymbolTableRecord
100
AcDbLinetypeTableRecord
  2
DASHDOTX2
 70
0
  3
Dash dot (2x) ____  .  ____  .  ____  .  ___
 72
65
 73
4
 40
50.7999999999999972
 49
25.3999999999999986
 74
0
 49
-12.6999999999999993
 74
0
 49
0.0
 74
0
 49
-12.6999999999999993
 74
0
  0
LTYPE
  5
3E
100
AcDbSymbolTableRecord
100
AcDbLinetypeTableRecord
  2
ACAD_ISO09W100
 70
0
  3
ISO long-dash double-short-dash ____ __ __ ____
 72
65
 73
6
 40
45.0
 49
24.0
 74
0
 49
-3.0
 74
0
 49
6.0
 74
0
 49
-3.0
 74
0
 49
6.0
 74
0
 49
-3.0
 74
0
  0
LTYPE
  5
3F
100
AcDbSymbolTableRecord
100
AcDbLinetypeTableRecord
  2
CENTERX2
 70
0
  3
Center (2x) ________  __  ________  __  _____
 72
65
 73
4
 40
101.6000000000000085
 49
63.5
 74
0
 49
-12.6999999999999993
 74
0
 49
12.6999999999999993
 74
0
 49
-12.6999999999999993
 74
0
  0
LTYPE
  5
40
100
AcDbSymbolTableRecord
100
AcDbLinetypeTableRecord
  2
DASHED2
 70
0
  3
Dashed (.5x) _ _ _ _ _ _ _ _ _ _ _ _ _ _ _ _ _ 
 72
65
 73
2
 40
9.5249999999999986
 49
6.3499999999999996
 74
0
 49
-3.1749999999999998
 74
0
  0
LTYPE
  5
41
100
AcDbSymbolTableRecord
100
AcDbLinetypeTableRecord
  2
DASHDOT
 70
0
  3
Dash dot __ . __ . __ . __ . __ . __ . __ . __
 72
65
 73
4
 40
25.3999999999999986
 49
12.6999999999999993
 74
0
 49
-6.3499999999999996
 74
0
 49
0.0
 74
0
 49
-6.3499999999999996
 74
0
  0
LTYPE
  5
42
100
AcDbSymbolTableRecord
100
AcDbLinetypeTableRecord
  2
ACAD_ISO12W100
 70
0
  3
ISO dash double-dot __ . . __ . . __ . . __ . . 
 72
65
 73
6
 40
21.0
 49
12.0
 74
0
 49
-3.0
 74
0
 49
0.0
 74
0
 49
-3.0
 74
0
 49
0.0
 74
0
 49
-3.0
 74
0
  0
LTYPE
  5
43
100
AcDbSymbolTableRecord
100
AcDbLinetypeTableRecord
  2
ACAD_ISO14W100
 70
0
  3
ISO dash triple-dot __ . . . __ . . . __ . . . _
 72
65
 73
8
 40
24.0
 49
12.0
 74
0
 49
-3.0
 74
0
 49
0.0
 74
0
 49
-3.0
 74
0
 49
0.0
 74
0
 49
-3.0
 74
0
 49
0.0
 74
0
 49
-3.0
 74
0
  0
LTYPE
  5
44
100
AcDbSymbolTableRecord
100
AcDbLinetypeTableRecord
  2
ACAD_ISO11W100
 70
0
  3
ISO double-dash dot __ __ . __ __ . __ __ . __ _
 72
65
 73
6
 40
33.0
 49
12.0
 74
0
 49
-3.0
 74
0
 49
12.0
 74
0
 49
-3.0
 74
0
 49
0.0
 74
0
 49
-3.0
 74
0
  0
LTYPE
  5
45
100
AcDbSymbolTableRecord
100
AcDbLinetypeTableRecord
  2
CENTER
 70
0
  3
Center ____ _ ____ _ ____ _ ____ _ ____ _ ____
 72
65
 73
4
 40
50.8000000000000043
 49
31.75
 74
0
 49
-6.3499999999999996
 74
0
 49
6.3499999999999996
 74
0
 49
-6.3499999999999996
 74
0
  0
LTYPE
  5
46
100
AcDbSymbolTableRecord
100
AcDbLinetypeTableRecord
  2
ACAD_ISO07W100
 70
0
  3
ISO dot . . . . . . . . . . . . . . . . . . . . 
 72
65
 73
2
 40
3.0
 49
0.0
 74
0
 49
-3.0
 74
0
  0
LTYPE
  5
47
100
AcDbSymbolTableRecord
100
AcDbLinetypeTableRecord
  2
DASHDOT2
 70
0
  3
Dash dot (.5x) _._._._._._._._._._._._._._._.
 72
65
 73
4
 40
12.6999999999999993
 49
6.3499999999999996
 74
0
 49
-3.1749999999999998
 74
0
 49
0.0
 74
0
 49
-3.1749999999999998
 74
0
  0
LTYPE
  5
48
100
AcDbSymbolTableRecord
100
AcDbLinetypeTableRecord
  2
DIVIDE2
 70
0
  3
Divide (.5x) __..__..__..__..__..__..__..__.._
 72
65
 73
6
 40
15.875
 49
6.3499999999999996
 74
0
 49
-3.1749999999999998
 74
0
 49
0.0
 74
0
 49
-3.1749999999999998
 74
0
 49
0.0
 74
0
 49
-3.1749999999999998
 74
0
  0
LTYPE
  5
49
100
AcDbSymbolTableRecord
100
AcDbLinetypeTableRecord
  2
DIVIDE
 70
0
  3
Divide ____ . . ____ . . ____ . . ____ . . ____
 72
65
 73
6
 40
31.75
 49
12.6999999999999993
 74
0
 49
-6.3499999999999996
 74
0
 49
0.0
 74
0
 49
-6.3499999999999996
 74
0
 49
0.0
 74
0
 49
-6.3499999999999996
 74
0
  0
LTYPE
  5
4A
100
AcDbSymbolTableRecord
100
AcDbLinetypeTableRecord
  2
HIDDENX2
 70
0
  3
Hidden (2x) ____ ____ ____ ____ ____ ____ ____ 
 72
65
 73
2
 40
19.0499999999999972
 49
12.6999999999999993
 74
0
 49
-6.3499999999999996
 74
0
  0
LTYPE
  5
4B
100
AcDbSymbolTableRecord
100
AcDbLinetypeTableRecord
  2
HIDDEN2
 70
0
  3
Hidden (.5x) _ _ _ _ _ _ _ _ _ _ _ _ _ _ _ _ _ 
 72
65
 73
2
 40
4.7624999999999993
 49
3.1749999999999998
 74
0
 49
-1.5874999999999999
 74
0
  0
LTYPE
  5
4C
100
AcDbSymbolTableRecord
100
AcDbLinetypeTableRecord
  2
ACAD_ISO10W100
 70
0
  3
ISO dash dot __ . __ . __ . __ . __ . __ . __ . 
 72
65
 73
4
 40
18.0
 49
12.0
 74
0
 49
-3.0
 74
0
 49
0.0
 74
0
 49
-3.0
 74
0
  0
LTYPE
  5
4D
100
AcDbSymbolTableRecord
100
AcDbLinetypeTableRecord
  2
ACAD_ISO04W100
 70
0
  3
ISO long-dash dot ____ . ____ . ____ . ____ . _
 72
65
 73
4
 40
30.0
 49
24.0
 74
0
 49
-3.0
 74
0
 49
0.0
 74
0
 49
-3.0
 74
0
  0
LTYPE
  5
15
100
AcDbSymbolTableRecord
100
AcDbLinetypeTableRecord
  2
BYLAYER
 70
0
  3

 72
65
 73
0
 40
0.0
  0
LTYPE
  5
4E
100
AcDbSymbolTableRecord
100
AcDbLinetypeTableRecord
  2
PHANTOM2
 70
0
  3
Phantom (.5x) ___ _ _ ___ _ _ ___ _ _ ___ _ _
 72
65
 73
6
 40
31.7500000000000036
 49
15.875
 74
0
 49
-3.1749999999999998
 74
0
 49
3.1749999999999998
 74
0
 49
-3.1749999999999998
 74
0
 49
3.1749999999999998
 74
0
 49
-3.1749999999999998
 74
0
  0
LTYPE
  5
4F
100
AcDbSymbolTableRecord
100
AcDbLinetypeTableRecord
  2
ACAD_ISO06W100
 70
0
  3
ISO long-dash triple-dot ____ ... ____ ... ____
 72
65
 73
8
 40
36.0
 49
24.0
 74
0
 49
-3.0
 74
0
 49
0.0
 74
0
 49
-3.0
 74
0
 49
0.0
 74
0
 49
-3.0
 74
0
 49
0.0
 74
0
 49
-3.0
 74
0
  0
LTYPE
  5
50
100
AcDbSymbolTableRecord
100
AcDbLinetypeTableRecord
  2
ACAD_ISO02W100
 70
0
  3
ISO dash __ __ __ __ __ __ __ __ __ __ __ __ __
 72
65
 73
2
 40
15.0
 49
12.0
 74
0
 49
-3.0
 74
0
  0
LTYPE
  5
51
100
AcDbSymbolTableRecord
100
AcDbLinetypeTableRecord
  2
ACAD_ISO08W100
 70
0
  3
ISO long-dash short-dash ____ __ ____ __ ____ _
 72
65
 73
4
 40
36.0
 49
24.0
 74
0
 49
-3.0
 74
0
 49
6.0
 74
0
 49
-3.0
 74
0
  0
LTYPE
  5
52
100
AcDbSymbolTableRecord
100
AcDbLinetypeTableRecord
  2
PHANTOM
 70
0
  3
Phantom ______  __  __  ______  __  __  ______ 
 72
65
 73
6
 40
63.5000000000000071
 49
31.75
 74
0
 49
-6.3499999999999996
 74
0
 49
6.3499999999999996
 74
0
 49
-6.3499999999999996
 74
0
 49
6.3499999999999996
 74
0
 49
-6.3499999999999996
 74
0
  0
LTYPE
  5
53
100
AcDbSymbolTableRecord
100
AcDbLinetypeTableRecord
  2
DASHEDX2
 70
0
  3
Dashed (2x) ____  ____  ____  ____  ____  ___
 72
65
 73
2
 40
38.0999999999999943
 49
25.3999999999999986
 74
0
 49
-12.6999999999999993
 74
0
  0
LTYPE
  5
54
100
AcDbSymbolTableRecord
100
AcDbLinetypeTableRecord
  2
CENTER2
 70
0
  3
Center (.5x) ___ _ ___ _ ___ _ ___ _ ___ _ ___
 72
65
 73
4
 40
28.5750000000000028
 49
19.0500000000000007
 74
0
 49
-3.1749999999999998
 74
0
 49
3.1749999999999998
 74
0
 49
-3.1749999999999998
 74
0
  0
LTYPE
  5
14
100
AcDbSymbolTableRecord
100
AcDbLinetypeTableRecord
  2
BYBLOCK
 70
0
  3

 72
65
 73
0
 40
0.0
  0
LTYPE
  5
55
100
AcDbSymbolTableRecord
100
AcDbLinetypeTableRecord
  2
DASHED
 70
0
  3
Dashed __ __ __ __ __ __ __ __ __ __ __ __ __ _
 72
65
 73
2
 40
19.0499999999999972
 49
12.6999999999999993
 74
0
 49
-6.3499999999999996
 74
0
  0
LTYPE
  5
56
100
AcDbSymbolTableRecord
100
AcDbLinetypeTableRecord
  2
PHANTOMX2
 70
0
  3
Phantom (2x) ____________    ____    ____   _
 72
65
 73
6
 40
127.0000000000000142
 49
63.5
 74
0
 49
-12.6999999999999993
 74
0
 49
12.6999999999999993
 74
0
 49
-12.6999999999999993
 74
0
 49
12.6999999999999993
 74
0
 49
-12.6999999999999993
 74
0
  0
ENDTAB
  0
TABLE
  2
LAYER
  5
2
100
AcDbSymbolTable
 70
2
  0
LAYER
  5
57
100
AcDbSymbolTableRecord
100
AcDbLayerTableRecord
  2
dimensions
 70
0
 62
1
420
16711680
  6
Continuous
370
25
390
F
  0
LAYER
  5
10
100
AcDbSymbolTableRecord
100
AcDbLayerTableRecord
  2
0
 70
0
 62
7
420
16777215
  6
Continuous
370
25
390
F
  0
ENDTAB
  0
TABLE
  2
STYLE
  5
3
100
AcDbSymbolTable
 70
1
  0
STYLE
  5
58
100
AcDbSymbolTableRecord
100
AcDbTextStyleTableRecord
  2
Standard
 70
0
 40
0.0
 41
1.0
 50
0.0
 71
0
 42
2.5
  3

  4

1001
ACAD
1000
txt
1071
0
  0
ENDTAB
  0
TABLE
  2
VIEW
  5
6
100
AcDbSymbolTable
 70
0
  0
ENDTAB
  0
TABLE
  2
UCS
  5
7
100
AcDbSymbolTable
 70
0
  0
ENDTAB
  0
TABLE
  2
APPID
  5
9
100
AcDbSymbolTable
 70
1
  0
APPID
  5
12
100
AcDbSymbolTableRecord
100
AcDbRegAppTableRecord
  2
ACAD
 70
0
  0
APPID
  5
59
100
AcDbSymbolTableRecord
100
AcDbRegAppTableRecord
  2
QCAD
 70
0
  0
ENDTAB
  0
TABLE
  2
DIMSTYLE
  5
A
100
AcDbSymbolTable
 70
1
100
AcDbDimStyleTable
 71
0
  0
DIMSTYLE
105
27
100
AcDbSymbolTableRecord
100
AcDbDimStyleTableRecord
  2
Standard
 41
2.5
 42
0.625
 43
3.75
 44
1.25
 70
0
 73
0
 74
0
 77
1
 78
8
140
2.5
141
2.5
143
0.03937007874016
147
0.625
171
3
172
1
271
2
272
2
274
3
278
44
283
0
284
8
340
58
  0
ENDTAB
  0
TABLE
  2
BLOCK_RECORD
  5
1
100
AcDbSymbolTable
 70
1
  0
BLOCK_RECORD
  5
1F
100
AcDbSymbolTableRecord
100
AcDbBlockTableRecord
  2
*Model_Space
340
22
  0
BLOCK_RECORD
  5
1B
100
AcDbSymbolTableRecord
100
AcDbBlockTableRecord
  2
*Paper_Space
340
1E
  0
BLOCK_RECORD
  5
23
100
AcDbSymbolTableRecord
100
AcDbBlockTableRecord
  2
*Paper_Space0
340
26
  0
ENDTAB
  0
ENDSEC
  0
SECTION
  2
BLOCKS
  0
BLOCK
  5
20
100
AcDbEntity
  8
0
100
AcDbBlockBegin
  2
*Model_Space
 70
0
 10
0.0
 20
0.0
 30
0.0
  3
*Model_Space
  1

  0
ENDBLK
  5
21
100
AcDbEntity
  8
0
100
AcDbBlockEnd
  0
BLOCK
  5
1C
100
AcDbEntity
 67
1
  8
0
100
AcDbBlockBegin
  2
*Paper_Space
 70
0
 10
0.0
 20
0.0
 30
0.0
  3
*Paper_Space
  1

  0
ENDBLK
  5
1D
100
AcDbEntity
 67
1
  8
0
100
AcDbBlockEnd
  0
BLOCK
  5
24
100
AcDbEntity
  8
0
100
AcDbBlockBegin
  2
*Paper_Space0
 70
0
 10
0.0
 20
0.0
 30
0.0
  3
*Paper_Space0
  1

  0
ENDBLK
  5
25
100
AcDbEntity
  8
0
100
AcDbBlockEnd
  0
ENDSEC
  0
SECTION
  2
ENTITIES
  0
LWPOLYLINE
  5
5A
100
AcDbEntity
  8
0
 62
256
370
-1
 48
1.0
  6
BYLAYER
100
AcDbPolyline
 90
5
 70
128
 10
330.8266219585825638
 20
329.5777872506987478
 10
330.8266219585825638
 20
435.5777872506987478
 10
483.8266219585825638
 20
435.5777872506987478
 10
483.8266219585825638
 20
329.5777872506987478
 10
330.8266219585825638
 20
329.5777872506987478
  0
LWPOLYLINE
  5
5B
100
AcDbEntity
  8
0
 62
256
370
-1
 48
1.0
  6
BYLAYER
100
AcDbPolyline
 90
9
 70
128
 10
390.8489977466022083
 20
881.2403192269023293
 10
410.8489977466022083
 20
881.2403192269023293
 10
410.8489977466022083
 20
877.2403192269023293
 10
410.8489977466022083
 20
872.2433175789531106
 10
410.8489977466022083
 20
841.2403192269023293
 10
390.8489977466022083
 20
841.2403192269023293
 10
390.8489977466022083
 20
872.2433175789531106
 10
390.8489977466022083
 20
877.2403192269023293
 10
390.8489977466022083
 20
881.2403192269023293
  0
LWPOLYLINE
  5
5C
100
AcDbEntity
  8
0
 62
256
370
-1
 48
1.0
  6
BYLAYER
100
AcDbPolyline
 90
37
 70
128
 10
451.9481190862027233
 20
873.4004096080977888
 10
453.3021229924527233
 20
873.6151236583907576
 10
453.3021229924527233
 20
873.6944083263595076
 10
453.8051289738980358
 20
873.6944083263595076
 10
510.8001088322964733
 20
873.6944083263595076
 10
513.3021229924527233
 20
873.6944083263595076
 10
513.3021229924527233
 20
873.5358313610274763
 10
514.3021229924527233
 20
873.6944083263595076
 10
516.1561268987027233
 20
873.4004096080977888
 10
517.8051137151089733
 20
872.5606268932540388
 10
517.8291310490933483
 20
872.5484046032149763
 10
519.1561268987027233
 20
871.2214087536056013
 10
520.0081166447964733
 20
869.5484046032149763
 10
520.3021229924527233
 20
867.6944083263595076
 10
520.0081166447964733
 20
865.8404120495040388
 10
519.5834035100308483
 20
865.0064047863204451
 10
519.1683339299527233
 20
864.1914099743087263
 10
519.1561268987027233
 20
864.1674078991134138
 10
517.8291310490933483
 20
862.8404120495040388
 10
516.1561268987027233
 20
861.9884070446212263
 10
514.3021229924527233
 20
861.6944083263595076
 10
513.3021229924527233
 20
861.8529852916915388
 10
513.3021229924527233
 20
861.6944083263595076
 10
510.8001088322964733
 20
861.6944083263595076
 10
453.3021229924527233
 20
861.6944083263595076
 10
453.3021229924527233
 20
861.7736929943282576
 10
451.9481190862027233
 20
861.9884070446212263
 10
450.2751301946011608
 20
862.8404120495040388
 10
448.9481190862027233
 20
864.1674078991134138
 10
448.5208424748745983
 20
865.0064047863204451
 10
448.0961293401089733
 20
865.8404120495040388
 10
447.8021229924527233
 20
867.6944083263595076
 10
448.0961293401089733
 20
869.5484046032149763
 10
448.9481190862027233
 20
871.2214087536056013
 10
450.2751301946011608
 20
872.5484046032149763
 10
450.8001240910855358
 20
872.8157691051681013
 10
451.9481190862027233
 20
873.4004096080977888
  0
LWPOLYLINE
  5
5D
100
AcDbEntity
  8
0
 62
256
370
-1
 48
1.0
  6
BYLAYER
100
AcDbPolyline
 90
174
 70
128
 10
526.0266341656138138
 20
826.2507914010893728
 10
526.0272139995981888
 20
826.2657755319487478
 10
526.0336226910044388
 20
826.4257791940581228
 10
526.0356368511606888
 20
826.4507730905424978
 10
526.0366134136606888
 20
826.4757975046049978
 10
526.0403060406138138
 20
826.5217874948393728
 10
526.0426253765513138
 20
826.5507791940581228
 10
526.0446090191294388
 20
826.5767801706206228
 10
526.0506209820200638
 20
826.6517923776518728
 10
526.0508651226450638
 20
826.6537760202299978
 10
526.0536117046763138
 20
826.6767862741362478
 10
526.0556258648325638
 20
826.7017801706206228
 10
526.0647506206919388
 20
826.7777994577299978
 10
526.0766219585825638
 20
826.8767984811674978
 10
526.0806197613169388
 20
826.9017923776518728
 10
526.0836104839731888
 20
826.9267862741362478
 10
526.1007308453013138
 20
827.0337809030424978
 10
526.1036300152231888
 20
827.0517862741362478
 10
526.1076278179575638
 20
827.0777872506987478
 10
526.1084212749888138
 20
827.0817850534331228
 10
526.1126327007700638
 20
827.1027811471831228
 10
526.1166305035044388
 20
827.1277750436674978
 10
526.1416243999888138
 20
827.2527750436674978
 10
526.1476363628794388
 20
827.2777994577299978
 10
526.1500167339731888
 20
827.2897928659331228
 10
526.1526107281138138
 20
827.3027933542143728
 10
526.1766280620981888
 20
827.4027994577299978
 10
526.1836165874888138
 20
827.4277933542143728
 10
526.1896285503794388
 20
827.4527872506987478
 10
526.2156600445200638
 20
827.5457743112456228
 10
526.2176131695200638
 20
827.5527933542143728
 10
526.2256087749888138
 20
827.5787943307768728
 10
526.2326278179575638
 20
827.6037882272612478
 10
526.2506331890513138
 20
827.6600321237456228
 10
526.2566146343638138
 20
827.6788004342924978
 10
526.2656173199106888
 20
827.7037943307768728
 10
526.2736129253794388
 20
827.7287882272612478
 10
526.2826156109263138
 20
827.7537821237456228
 10
526.2926253765513138
 20
827.7787760202299978
 10
526.3008956402231888
 20
827.8017862741362478
 10
526.3016280620981888
 20
827.8038004342924978
 10
526.3066329449106888
 20
827.8162821237456228
 10
526.3316268413950638
 20
827.8787821237456228
 10
526.3756331890513138
 20
827.9787882272612478
 10
526.3876265972544388
 20
828.0037821237456228
 10
526.4006270855356888
 20
828.0287760202299978
 10
526.4126204937388138
 20
828.0538004342924978
 10
526.4147872417856888
 20
828.0577982370268728
 10
526.4266280620981888
 20
828.0798014108549978
 10
526.4396285503794388
 20
828.1047953073393728
 10
526.4516219585825638
 20
828.1262186471831228
 10
526.4536361187388138
 20
828.1297892038237478
 10
526.4836348980356888
 20
828.1797769967924978
 10
526.4996261089731888
 20
828.2048014108549978
 10
526.5336226910044388
 20
828.2547892038237478
 10
526.5516280620981888
 20
828.2797831003081228
 10
526.5706099956919388
 20
828.3047769967924978
 10
526.5778121441294388
 20
828.3137796823393728
 10
526.5906295269419388
 20
828.3298014108549978
 10
526.6126327007700638
 20
828.3547953073393728
 10
526.6356124370981888
 20
828.3797892038237478
 10
526.6596297710825638
 20
828.4047831003081228
 10
526.6866073101450638
 20
828.4297769967924978
 10
526.7156295269419388
 20
828.4548014108549978
 10
526.7476119488169388
 20
828.4797953073393728
 10
526.7846297710825638
 20
828.5047892038237478
 10
526.8296126812388138
 20
828.5297831003081228
 10
526.8876265972544388
 20
828.5547769967924978
 10
527.0123519390513138
 20
828.5777872506987478
 10
527.0286178081919388
 20
828.5777872506987478
 10
576.0266341656138138
 20
828.5777872506987478
 10
576.0266341656138138
 20
826.0757730905424978
 10
576.0266341656138138
 20
773.5777872506987478
 10
620.8266219585825638
 20
773.5777872506987478
 10
620.8266219585825638
 20
771.0757883493315603
 10
620.8266219585825638
 20
715.5777872506987478
 10
525.8266219585825638
 20
715.5777872506987478
 10
525.8266219585825638
 20
771.0757883493315603
 10
525.8266219585825638
 20
771.1757944528471853
 10
525.8276290386606888
 20
771.2007883493315603
 10
525.8296126812388138
 20
771.2257822458159353
 10
525.8306197613169388
 20
771.2507914010893728
 10
525.8336104839731888
 20
771.2757852975737478
 10
525.8356246441294388
 20
771.3007944528471853
 10
525.8476180523325638
 20
771.4007852975737478
 10
525.8556136578013138
 20
771.4507883493315603
 10
525.8606185406138138
 20
771.4757822458159353
 10
525.8615951031138138
 20
771.4817942087065603
 10
525.8646163433481888
 20
771.5007914010893728
 10
525.8706283062388138
 20
771.5257852975737478
 10
525.8756331890513138
 20
771.5507944528471853
 10
525.8806075542856888
 20
771.5767801706206228
 10
525.8818282574106888
 20
771.5817850534331228
 10
525.8926314800669388
 20
771.6267832223784353
 10
525.9206160992075638
 20
771.7267893258940603
 10
525.9241561382700638
 20
771.7377909128081228
 10
525.9366073101450638
 20
771.7767923776518728
 10
525.9446334331919388
 20
771.8017862741362478
 10
525.9626082867075638
 20
771.8517893258940603
 10
525.9726180523325638
 20
771.8767832223784353
 10
525.9816207378794388
 20
771.9017923776518728
 10
525.9916305035044388
 20
771.9267862741362478
 10
526.0026168316294388
 20
771.9517801706206228
 10
526.0126265972544388
 20
771.9767893258940603
 10
526.0201034038950638
 20
771.9937876169096853
 10
526.0236129253794388
 20
772.0017832223784353
 10
526.0356368511606888
 20
772.0267923776518728
 10
526.0466231792856888
 20
772.0517862741362478
 10
526.0596236675669388
 20
772.0777872506987478
 10
526.0716170757700638
 20
772.1027811471831228
 10
526.0778731792856888
 20
772.1147898141753103
 10
526.0976180523325638
 20
772.1527841989409353
 10
526.1396102398325638
 20
772.2277811471831228
 10
526.1528243511606888
 20
772.2497843210112478
 10
526.1696090191294388
 20
772.2777841989409353
 10
526.2176131695200638
 20
772.3527811471831228
 10
526.2516097515513138
 20
772.4027841989409353
 10
526.2696151226450638
 20
772.4277933542143728
 10
526.2886275738169388
 20
772.4527872506987478
 10
526.3066329449106888
 20
772.4777811471831228
 10
526.3266219585825638
 20
772.5027903024565603
 10
526.3289107769419388
 20
772.5057810251128103
 10
526.3456344097544388
 20
772.5277841989409353
 10
526.3666305035044388
 20
772.5527933542143728
 10
526.3876265972544388
 20
772.5787943307768728
 10
526.4086226910044388
 20
772.6037882272612478
 10
526.4271163433481888
 20
772.6247843210112478
 10
526.4526290386606888
 20
772.6537912790190603
 10
526.4766158550669388
 20
772.6787851755034353
 10
526.4996261089731888
 20
772.7037943307768728
 10
526.5246200054575638
 20
772.7287882272612478
 10
526.5496139019419388
 20
772.7537821237456228
 10
526.5579452007700638
 20
772.7617929880034353
 10
526.6016158550669388
 20
772.8037851755034353
 10
526.6286239117075638
 20
772.8287943307768728
 10
526.6566085308481888
 20
772.8537882272612478
 10
526.6856307476450638
 20
772.8787821237456228
 10
526.7456283062388138
 20
772.9287851755034353
 10
526.8096236675669388
 20
772.9787882272612478
 10
526.8186263531138138
 20
772.9856089059721853
 10
526.8426131695200638
 20
773.0037821237456228
 10
526.8622359722544388
 20
773.0177896921049978
 10
526.8776168316294388
 20
773.0287912790190603
 10
526.9136275738169388
 20
773.0537851755034353
 10
526.9506148785044388
 20
773.0797861520659353
 10
526.9589766949106888
 20
773.0852945749174978
 10
526.9886092632700638
 20
773.1047800485503103
 10
527.0276107281138138
 20
773.1297892038237478
 10
527.0686263531138138
 20
773.1547831003081228
 10
527.1116256206919388
 20
773.1797922555815603
 10
527.1566085308481888
 20
773.2047861520659353
 10
527.2026290386606888
 20
773.2297800485503103
 10
527.2516097515513138
 20
773.2547892038237478
 10
527.3026351421763138
 20
773.2797831003081228
 10
527.3306197613169388
 20
773.2929972116362478
 10
527.3556136578013138
 20
773.3047922555815603
 10
527.4116134136606888
 20
773.3297861520659353
 10
527.4716109722544388
 20
773.3547800485503103
 10
527.5356368511606888
 20
773.3797892038237478
 10
527.6046370953013138
 20
773.4047831003081228
 10
527.6786117046763138
 20
773.4297922555815603
 10
527.7606124370981888
 20
773.4547861520659353
 10
527.8506087749888138
 20
773.4797800485503103
 10
527.9546126812388138
 20
773.5047892038237478
 10
528.0786361187388138
 20
773.5297831003081228
 10
528.2416305035044388
 20
773.5547922555815603
 10
528.5937118023325638
 20
773.5777872506987478
 10
528.6396102398325638
 20
773.5807932321440603
 10
528.4111556499888138
 20
773.5807932321440603
 10
527.3306197613169388
 20
773.5807932321440603
 10
526.0266341656138138
 20
773.5807932321440603
 10
526.0266341656138138
 20
826.0757730905424978
 10
526.0266341656138138
 20
826.2257975046049978
 10
526.0266341656138138
 20
826.2507914010893728
  0
LWPOLYLINE
  5
5E
100
AcDbEntity
  8
0
 62
256
370
-1
 48
1.0
  6
BYLAYER
100
AcDbPolyline
 90
5
 70
128
 10
321.1626553543322871
 20
632.606253102587516
 10
396.1626553543322871
 20
632.606253102587516
 10
396.1626553543322871
 20
479.606253102587516
 10
321.1626553543322871
 20
479.606253102587516
 10
321.1626553543322871
 20
632.606253102587516
  0
LWPOLYLINE
  5
5F
100
AcDbEntity
  8
0
 62
256
370
-1
 48
1.0
  6
BYLAYER
100
AcDbPolyline
 90
13
 70
128
 10
447.2918982770054299
 20
488.553205751747214
 10
447.2918982770054299
 20
641.5532057517471003
 10
483.3888983990757424
 20
641.5532057517471003
 10
513.3948951031773049
 20
641.5532057517471003
 10
583.3888983990757424
 20
641.5532057517471003
 10
613.3948951031773049
 20
641.5532057517471003
 10
647.2918982770054299
 20
641.5532057517471003
 10
647.2918982770054299
 20
488.553205751747214
 10
613.3948951031773049
 20
488.553205751747214
 10
583.3888983990757424
 20
488.553205751747214
 10
513.3948951031773049
 20
488.553205751747214
 10
483.3888983990757424
 20
488.553205751747214
 10
447.2918982770054299
 20
488.553205751747214
  0
LWPOLYLINE
  5
60
100
AcDbEntity
  8
0
 62
256
370
-1
 48
1.0
  6
BYLAYER
100
AcDbPolyline
 90
11
 70
128
 10
500.4427472549009508
 20
222.0759684312973832
 10
500.4427472549009508
 20
308.3239695299301957
 10
550.4447461562681383
 20
308.3239695299301957
 10
550.4447461562681383
 20
431.0759684312972695
 10
656.4397469955015367
 20
431.0759684312972695
 10
656.4397469955015367
 20
308.3239695299301957
 10
706.4427472549009508
 20
308.3239695299301957
 10
706.4427472549009508
 20
222.0759684312973832
 10
656.4397469955015367
 20
222.0759684312973832
 10
550.4447461562681383
 20
222.0759684312973832
 10
500.4427472549009508
 20
222.0759684312973832
  0
LWPOLYLINE
  5
61
100
AcDbEntity
  8
0
 62
256
370
-1
 48
1.0
  6
BYLAYER
100
AcDbPolyline
 90
5
 70
128
 10
143.2328711001957799
 20
283.8556747904235635
 10
143.2328711001957799
 20
436.8556747904235635
 10
263.2328711001957799
 20
436.8556747904235635
 10
263.2328711001957799
 20
283.8556747904235635
 10
143.2328711001957799
 20
283.8556747904235635
  0
LWPOLYLINE
  5
62
100
AcDbEntity
  8
0
 62
256
370
-1
 48
1.0
  6
BYLAYER
100
AcDbPolyline
 90
10
 70
128
 10
31.6038180416768739
 20
527.1590374840276354
 10
31.6038180416768739
 20
528.1590374840276354
 10
31.6038180416768739
 20
558.1590374840276354
 10
31.6038180416768739
 20
562.1590374840276354
 10
55.6038180416768739
 20
562.1590374840276354
 10
55.6038180416768739
 20
558.1590374840276354
 10
55.6038180416768739
 20
529.3070401085393542
 10
55.6038180416768739
 20
528.1590374840276354
 10
55.6038180416768739
 20
527.1590374840276354
 10
31.6038180416768739
 20
527.1590374840276354
  0
LWPOLYLINE
  5
63
100
AcDbEntity
  8
0
 62
256
370
-1
 48
1.0
  6
BYLAYER
100
AcDbPolyline
 90
8
 70
128
 10
768.7833056404278977
 20
823.6533206274582426
 10
768.7833056404278977
 20
683.6503146460129301
 10
772.786303992478679
 20
683.6503146460129301
 10
772.786303992478679
 20
670.6533206274582426
 10
652.786303992478679
 20
670.6533206274582426
 10
652.786303992478679
 20
683.6503146460129301
 10
652.786303992478679
 20
823.6533206274582426
 10
768.7833056404278977
 20
823.6533206274582426
  0
LWPOLYLINE
  5
64
100
AcDbEntity
  8
0
 62
256
370
-1
 48
1.0
  6
BYLAYER
100
AcDbPolyline
 90
5
 70
128
 10
683.4786262107179482
 20
620.8385063954003726
 10
836.4786262107179482
 20
620.8385063954003726
 10
836.4786262107179482
 20
534.8385063954003726
 10
683.4786262107179482
 20
534.8385063954003726
 10
683.4786262107179482
 20
620.8385063954003726
  0
LWPOLYLINE
  5
65
100
AcDbEntity
  8
0
 62
256
370
-1
 48
1.0
  6
BYLAYER
100
AcDbPolyline
 90
5
 70
128
 10
685.0193283681767298
 20
499.1230359561681098
 10
838.0193283681767298
 20
499.1230359561681098
 10
838.0193283681767298
 20
413.1230359561681098
 10
685.0193283681767298
 20
413.1230359561681098
 10
685.0193283681767298
 20
499.1230359561681098
  0
LWPOLYLINE
  5
66
100
AcDbEntity
  8
0
 62
256
370
-1
 48
1.0
  6
BYLAYER
100
AcDbPolyline
 90
9
 70
128
 10
869.3888983990757424
 20
193.5532057517473277
 10
812.8868994977085549
 20
193.5532057517473277
 10
763.3888983990757424
 20
193.5532057517473277
 10
763.3888983990757424
 20
346.553205751747214
 10
812.8868994977085549
 20
346.553205751747214
 10
819.8919043805210549
 20
346.553205751747214
 10
869.3888983990757424
 20
346.553205751747214
 10
869.3888983990757424
 20
323.5501997703019015
 10
869.3888983990757424
 20
193.5532057517473277
  0
DIMENSION
  5
67
100
AcDbEntity
  8
dimensions
 62
256
370
-1
 48
1.0
  6
BYLAYER
100
AcDbDimension
 10
321.826621958582507
 20
435.5777872506989752
 30
0.0
 11
319.951621958582507
 21
382.5777872506988047
 31
0.0
 70
0
 71
8
 72
2
 74
0
 75
0
 41
1.0
 42
0.0
  1

  3
Standard
100
AcDbAlignedDimension
 13
330.8266219585825638
 23
435.5777872506987478
 33
0.0
 14
330.826621958582507
 24
329.5777872506988615
 34
0.0
 50
90.0
100
AcDbRotatedDimension
1001
ACAD
1000
DSTYLE
1002
{
1070
144
1040
1.0
1070
40
1040
1.0
1002
}
  0
LWPOLYLINE
  5
68
100
AcDbEntity
  8
0
 62
256
370
-1
 48
1.0
  6
BYLAYER
100
AcDbPolyline
 90
10
 70
128
 10
352.8489977466022083
 20
881.2403192269023293
 10
372.8489977466022083
 20
881.2403192269023293
 10
372.8489977466022083
 20
877.2403192269023293
 10
372.8489977466022083
 20
872.2433175789531106
 10
372.8489977466022083
 20
841.2403192269023293
 10
371.8489977466022083
 20
841.2403192269023293
 10
352.8489977466022083
 20
841.2403192269023293
 10
352.8489977466022083
 20
872.2433175789531106
 10
352.8489977466022083
 20
877.2403192269023293
 10
352.8489977466022083
 20
881.2403192269023293
  0
LWPOLYLINE
  5
69
100
AcDbEntity
  8
0
 62
256
370
-1
 48
1.0
  6
BYLAYER
100
AcDbPolyline
 90
29
 70
128
 10
450.8731221379605358
 20
868.1584052135665388
 10
450.8001240910855358
 20
867.6944083263595076
 10
450.8731221379605358
 20
867.2304114391524763
 10
451.0861195744839733
 20
866.8114050914962263
 10
451.4191273869839733
 20
866.4784049083907576
 10
451.7081288518277233
 20
866.3314932872970076
 10
451.8381184758511608
 20
866.2654074718673201
 10
452.3021229924527233
 20
866.1914099743087263
 10
452.7661275090542858
 20
866.2654074718673201
 10
453.1851185979214733
 20
866.4784049083907576
 10
453.3021229924527233
 20
866.5954093029220076
 10
453.5181264104214733
 20
866.8114050914962263
 10
453.7311238469449108
 20
867.2304114391524763
 10
453.7561177434292858
 20
867.3871649791915388
 10
453.8051289738980358
 20
867.6944083263595076
 10
453.7561177434292858
 20
868.0016516735274763
 10
453.7311238469449108
 20
868.1584052135665388
 10
453.5181264104214733
 20
868.5774115612227888
 10
453.3021229924527233
 20
868.7934073497970076
 10
453.1851185979214733
 20
868.9104117443282576
 10
452.8074330510464733
 20
869.1024054577071638
 10
452.7661275090542858
 20
869.1234091808516951
 10
452.3021229924527233
 20
869.1964072277266951
 10
451.8381184758511608
 20
869.1234091808516951
 10
451.7968129338589733
 20
869.1024054577071638
 10
451.7081288518277233
 20
869.0573233654220076
 10
451.4191273869839733
 20
868.9104117443282576
 10
451.0861195744839733
 20
868.5774115612227888
 10
450.8731221379605358
 20
868.1584052135665388
  0
LWPOLYLINE
  5
6A
100
AcDbEntity
  8
0
 62
256
370
-1
 48
1.0
  6
BYLAYER
100
AcDbPolyline
 90
5
 70
128
 10
241.1626553543322871
 20
633.606253102587516
 10
316.1626553543322871
 20
633.606253102587516
 10
316.1626553543322871
 20
480.606253102587516
 10
241.1626553543322871
 20
480.606253102587516
 10
241.1626553543322871
 20
633.606253102587516
  0
LWPOLYLINE
  5
6B
100
AcDbEntity
  8
0
 62
256
370
-1
 48
1.0
  6
BYLAYER
100
AcDbPolyline
 90
5
 70
128
 10
513.3948951031773049
 20
621.3561995261611628
 10
483.3888983990757424
 20
621.3561995261611628
 10
483.3888983990757424
 20
591.351209902137839
 10
513.3948951031773049
 20
591.351209902137839
 10
513.3948951031773049
 20
621.3561995261611628
  0
DIMENSION
  5
6C
100
AcDbEntity
  8
dimensions
 62
256
370
-1
 48
1.0
  6
BYLAYER
100
AcDbDimension
 10
550.4447461562681383
 20
437.0759684312973832
 30
0.0
 11
603.4422465758848375
 21
438.9509684312973832
 31
0.0
 70
0
 71
8
 72
2
 74
0
 75
0
 41
1.0
 42
0.0
  1

  3
Standard
100
AcDbAlignedDimension
 13
550.4447461562681383
 23
431.0759684312972695
 33
0.0
 14
656.4397469955015367
 24
431.0759684312972695
 34
0.0
 50
0.0
100
AcDbRotatedDimension
1001
ACAD
1000
DSTYLE
1002
{
1070
144
1040
1.0
1070
40
1040
1.0
1002
}
  0
DIMENSION
  5
6D
100
AcDbEntity
  8
dimensions
 62
256
370
-1
 48
1.0
  6
BYLAYER
100
AcDbDimension
 10
143.2328711001957799
 20
445.8556747904231088
 30
0.0
 11
203.2328711001957799
 21
447.7306747904231088
 31
0.0
 70
0
 71
8
 72
2
 74
0
 75
0
 41
1.0
 42
0.0
  1

  3
Standard
100
AcDbAlignedDimension
 13
143.2328711001957799
 23
436.8556747904234498
 33
0.0
 14
263.2328711001957799
 24
436.8556747904236772
 34
0.0
 50
0.0
100
AcDbRotatedDimension
1001
ACAD
1000
DSTYLE
1002
{
1070
144
1040
1.0
1070
40
1040
1.0
1002
}
  0
LWPOLYLINE
  5
6E
100
AcDbEntity
  8
0
 62
256
370
-1
 48
1.0
  6
BYLAYER
100
AcDbPolyline
 90
10
 70
128
 10
57.6038180416768739
 20
526.1590374840276354
 10
57.6038180416768739
 20
528.1590374840276354
 10
57.6038180416768739
 20
558.1590374840276354
 10
57.6038180416768739
 20
561.1590374840276354
 10
81.6038180416768739
 20
561.1590374840276354
 10
81.6038180416768739
 20
558.1590374840276354
 10
81.6038180416768739
 20
528.3070401085393542
 10
81.6038180416768739
 20
528.1590374840276354
 10
81.6038180416768739
 20
526.1590374840276354
 10
57.6038180416768739
 20
526.1590374840276354
  0
DIMENSION
  5
6F
100
AcDbEntity
  8
dimensions
 62
256
370
-1
 48
1.0
  6
BYLAYER
100
AcDbDimension
 10
645.2165888927635251
 20
823.6533206274582426
 30
0.0
 11
643.3415888927635251
 21
747.1533206274583563
 31
0.0
 70
0
 71
8
 72
2
 74
0
 75
0
 41
1.0
 42
0.0
  1

  3
Standard
100
AcDbAlignedDimension
 13
652.786303992478679
 23
823.65332062745847
 33
0.0
 14
652.786303992478679
 24
670.6533206274582426
 34
0.0
 50
90.0
100
AcDbRotatedDimension
1001
ACAD
1000
DSTYLE
1002
{
1070
144
1040
1.0
1070
40
1040
1.0
1002
}
  0
DIMENSION
  5
70
100
AcDbEntity
  8
dimensions
 62
256
370
-1
 48
1.0
  6
BYLAYER
100
AcDbDimension
 10
683.4786262107179482
 20
629.1982108113547838
 30
0.0
 11
759.9786262107179482
 21
631.0732108113547838
 31
0.0
 70
0
 71
8
 72
2
 74
0
 75
0
 41
1.0
 42
0.0
  1

  3
Standard
100
AcDbAlignedDimension
 13
683.4786262107179482
 23
620.838506395400259
 33
0.0
 14
836.4786262107179482
 24
620.8385063954003726
 34
0.0
 50
0.0
100
AcDbRotatedDimension
1001
ACAD
1000
DSTYLE
1002
{
1070
144
1040
1.0
1070
40
1040
1.0
1002
}
  0
DIMENSION
  5
71
100
AcDbEntity
  8
dimensions
 62
256
370
-1
 48
1.0
  6
BYLAYER
100
AcDbDimension
 10
685.0193283681767298
 20
507.482740372122521
 30
0.0
 11
761.5193283681767298
 21
509.357740372122521
 31
0.0
 70
0
 71
8
 72
2
 74
0
 75
0
 41
1.0
 42
0.0
  1

  3
Standard
100
AcDbAlignedDimension
 13
685.0193283681767298
 23
499.1230359561679961
 33
0.0
 14
838.0193283681767298
 24
499.1230359561681098
 34
0.0
 50
0.0
100
AcDbRotatedDimension
1001
ACAD
1000
DSTYLE
1002
{
1070
144
1040
1.0
1070
40
1040
1.0
1002
}
  0
LWPOLYLINE
  5
72
100
AcDbEntity
  8
0
 62
256
370
-1
 48
1.0
  6
BYLAYER
100
AcDbPolyline
 90
23
 70
128
 10
815.3068976666538674
 20
323.722212099403464
 10
816.3888983990757424
 20
323.5501997703019015
 10
817.4708991314976174
 20
323.722212099403464
 10
818.4479041363804299
 20
324.2192061179581515
 10
818.9418921734898049
 20
324.713209413856589
 10
819.2228980328648049
 20
324.9942000144425265
 10
819.7198920514194924
 20
325.971205019325339
 10
819.8919043805210549
 20
327.053205751747214
 10
819.7198920514194924
 20
328.135206484169089
 10
819.2228980328648049
 20
329.1122114890519015
 10
818.4479041363804299
 20
329.8872053855362765
 10
817.4708991314976174
 20
330.384199404090964
 10
816.3888983990757424
 20
330.5552046531144015
 10
815.3068976666538674
 20
330.384199404090964
 10
814.3298926617710549
 20
329.8872053855362765
 10
813.5548987652866799
 20
329.1122114890519015
 10
813.0579047467319924
 20
328.135206484169089
 10
812.8868994977085549
 20
327.053205751747214
 10
813.0579047467319924
 20
325.971205019325339
 10
813.5548987652866799
 20
324.9942000144425265
 10
813.8359046246616799
 20
324.713209413856589
 10
814.3298926617710549
 20
324.2192061179581515
 10
815.3068976666538674
 20
323.722212099403464
  0
DIMENSION
  5
73
100
AcDbEntity
  8
dimensions
 62
256
370
-1
 48
1.0
  6
BYLAYER
100
AcDbDimension
 10
330.826621958582507
 20
439.5777872506987478
 30
0.0
 11
407.3266219585825638
 21
441.4527872506987478
 31
0.0
 70
0
 71
8
 72
2
 74
0
 75
0
 41
1.0
 42
0.0
  1

  3
Standard
100
AcDbAlignedDimension
 13
330.8266219585825638
 23
435.5777872506987478
 33
0.0
 14
483.8266219585825638
 24
435.5777872506987478
 34
0.0
 50
0.0
100
AcDbRotatedDimension
1001
ACAD
1000
DSTYLE
1002
{
1070
144
1040
1.0
1070
40
1040
1.0
1002
}
  0
LWPOLYLINE
  5
74
100
AcDbEntity
  8
0
 62
256
370
-1
 48
1.0
  6
BYLAYER
100
AcDbPolyline
 90
15
 70
128
 10
494.845999394551427
 20
716.2453202950175637
 10
448.8489977466022083
 20
716.2453202950175637
 10
432.8489977466022083
 20
716.2453202950175637
 10
430.8489977466022083
 20
716.2453202950175637
 10
390.8489977466022083
 20
716.2453202950175637
 10
386.8489977466022083
 20
716.2453202950175637
 10
384.8489977466022083
 20
716.2453202950175637
 10
371.8489977466022083
 20
716.2453202950175637
 10
371.8489977466022083
 20
822.2403192269023293
 10
372.8489977466022083
 20
822.2403192269023293
 10
390.8489977466022083
 20
822.2403192269023293
 10
410.8489977466022083
 20
822.2403192269023293
 10
448.8489977466022083
 20
822.2403192269023293
 10
494.845999394551427
 20
822.2403192269023293
 10
494.845999394551427
 20
716.2453202950175637
  0
LWPOLYLINE
  5
75
100
AcDbEntity
  8
0
 62
256
370
-1
 48
1.0
  6
BYLAYER
100
AcDbPolyline
 90
25
 70
128
 10
515.3841237248745983
 20
871.0254096080977888
 10
514.3021229924527233
 20
871.1964072277266951
 10
513.3021229924527233
 20
871.0383643200118513
 10
513.2201222600308483
 20
871.0254096080977888
 10
512.2431325139370983
 20
870.5284079601485701
 10
511.4681080998745983
 20
869.7534064342696638
 10
510.9711293401089733
 20
868.7764090587813826
 10
510.8001088322964733
 20
867.6944083263595076
 10
510.9711293401089733
 20
866.6124075939376326
 10
511.4681080998745983
 20
865.6354102184493513
 10
512.0971364201870983
 20
865.0064047863204451
 10
512.2431325139370983
 20
864.8604086925704451
 10
513.2201222600308483
 20
864.3634070446212263
 10
513.3021229924527233
 20
864.3503760387618513
 10
514.3021229924527233
 20
864.1914099743087263
 10
515.3841237248745983
 20
864.3634070446212263
 10
516.3611134709683483
 20
864.8604086925704451
 10
516.5071095647183483
 20
865.0064047863204451
 10
517.1361378850308483
 20
865.6354102184493513
 10
517.6331166447964733
 20
866.6124075939376326
 10
517.8051137151089733
 20
867.6944083263595076
 10
517.6331166447964733
 20
868.7764090587813826
 10
517.1361378850308483
 20
869.7534064342696638
 10
516.3611134709683483
 20
870.5284079601485701
 10
515.3841237248745983
 20
871.0254096080977888
  0
DIMENSION
  5
76
100
AcDbEntity
  8
dimensions
 62
256
370
-1
 48
1.0
  6
BYLAYER
100
AcDbDimension
 10
241.1626553543322871
 20
640.5428627891972155
 30
0.0
 11
278.6626553543322871
 21
642.4178627891972155
 31
0.0
 70
0
 71
8
 72
2
 74
0
 75
0
 41
1.0
 42
0.0
  1

  3
Standard
100
AcDbAlignedDimension
 13
241.1626553543322871
 23
633.606253102587516
 33
0.0
 14
316.1626553543322871
 24
633.606253102587516
 34
0.0
 50
0.0
100
AcDbRotatedDimension
1001
ACAD
1000
DSTYLE
1002
{
1070
144
1040
1.0
1070
40
1040
1.0
1002
}
  0
LWPOLYLINE
  5
77
100
AcDbEntity
  8
0
 62
256
370
-1
 48
1.0
  6
BYLAYER
100
AcDbPolyline
 90
5
 70
128
 10
613.3948951031773049
 20
621.3561995261611628
 10
583.3888983990757424
 20
621.3561995261611628
 10
583.3888983990757424
 20
591.351209902137839
 10
613.3948951031773049
 20
591.351209902137839
 10
613.3948951031773049
 20
621.3561995261611628
  0
DIMENSION
  5
78
100
AcDbEntity
  8
dimensions
 62
256
370
-1
 48
1.0
  6
BYLAYER
100
AcDbDimension
 10
656.4397469955015367
 20
317.0759684312973832
 30
0.0
 11
681.4412471252012438
 21
318.9509684312973832
 31
0.0
 70
0
 71
8
 72
2
 74
0
 75
0
 41
1.0
 42
0.0
  1

  3
Standard
100
AcDbAlignedDimension
 13
656.4397469955015367
 23
308.3239695299301957
 33
0.0
 14
706.4427472549009508
 24
308.3239695299301957
 34
0.0
 50
0.0
100
AcDbRotatedDimension
1001
ACAD
1000
DSTYLE
1002
{
1070
144
1040
1.0
1070
40
1040
1.0
1002
}
  0
DIMENSION
  5
79
100
AcDbEntity
  8
dimensions
 62
256
370
-1
 48
1.0
  6
BYLAYER
100
AcDbDimension
 10
130.2328711001957799
 20
436.8556747904232225
 30
0.0
 11
128.3578711001957799
 21
360.3556747904235635
 31
0.0
 70
0
 71
8
 72
2
 74
0
 75
0
 41
1.0
 42
0.0
  1

  3
Standard
100
AcDbAlignedDimension
 13
143.2328711001957799
 23
436.8556747904234498
 33
0.0
 14
143.2328711001957799
 24
283.8556747904236772
 34
0.0
 50
90.0
100
AcDbRotatedDimension
1001
ACAD
1000
DSTYLE
1002
{
1070
144
1040
1.0
1070
40
1040
1.0
1002
}
  0
LWPOLYLINE
  5
7A
100
AcDbEntity
  8
0
 62
256
370
-1
 48
1.0
  6
BYLAYER
100
AcDbPolyline
 90
9
 70
128
 10
183.6038180416768739
 20
612.1590374840276354
 10
183.6038180416768739
 20
622.1590374840276354
 10
183.6038180416768739
 20
652.1590374840276354
 10
186.8018160885518739
 20
652.1590374840276354
 10
209.1068087643331239
 20
652.1590374840276354
 10
218.6038180416768739
 20
652.1590374840276354
 10
218.6038180416768739
 20
622.1590374840276354
 10
218.6038180416768739
 20
612.1590374840276354
 10
183.6038180416768739
 20
612.1590374840276354
  0
DIMENSION
  5
7B
100
AcDbEntity
  8
dimensions
 62
256
370
-1
 48
1.0
  6
BYLAYER
100
AcDbDimension
 10
652.786303992478679
 20
830.7902721944099085
 30
0.0
 11
710.7848048164532884
 21
832.6652721944099085
 31
0.0
 70
0
 71
8
 72
2
 74
0
 75
0
 41
1.0
 42
0.0
  1

  3
Standard
100
AcDbAlignedDimension
 13
652.786303992478679
 23
823.65332062745847
 33
0.0
 14
768.7833056404278977
 24
823.6533206274582426
 34
0.0
 50
0.0
100
AcDbRotatedDimension
1001
ACAD
1000
DSTYLE
1002
{
1070
144
1040
1.0
1070
40
1040
1.0
1002
}
  0
DIMENSION
  5
7C
100
AcDbEntity
  8
dimensions
 62
256
370
-1
 48
1.0
  6
BYLAYER
100
AcDbDimension
 10
679.3481181385433274
 20
620.8385063954003726
 30
0.0
 11
677.4731181385433274
 21
577.8385063954003726
 31
0.0
 70
0
 71
8
 72
2
 74
0
 75
0
 41
1.0
 42
0.0
  1

  3
Standard
100
AcDbAlignedDimension
 13
683.4786262107179482
 23
620.838506395400259
 33
0.0
 14
683.4786262107179482
 24
534.8385063954004863
 34
0.0
 50
90.0
100
AcDbRotatedDimension
1001
ACAD
1000
DSTYLE
1002
{
1070
144
1040
1.0
1070
40
1040
1.0
1002
}
  0
DIMENSION
  5
7D
100
AcDbEntity
  8
dimensions
 62
256
370
-1
 48
1.0
  6
BYLAYER
100
AcDbDimension
 10
680.888820296002109
 20
499.1230359561681098
 30
0.0
 11
679.013820296002109
 21
456.1230359561681098
 31
0.0
 70
0
 71
8
 72
2
 74
0
 75
0
 41
1.0
 42
0.0
  1

  3
Standard
100
AcDbAlignedDimension
 13
685.0193283681767298
 23
499.1230359561679961
 33
0.0
 14
685.0193283681767298
 24
413.1230359561682235
 34
0.0
 50
90.0
100
AcDbRotatedDimension
1001
ACAD
1000
DSTYLE
1002
{
1070
144
1040
1.0
1070
40
1040
1.0
1002
}
  0
DIMENSION
  5
7E
100
AcDbEntity
  8
dimensions
 62
256
370
-1
 48
1.0
  6
BYLAYER
100
AcDbDimension
 10
763.3888983990757424
 20
352.1358268343683449
 30
0.0
 11
816.3888983990757424
 21
354.0108268343683449
 31
0.0
 70
0
 71
8
 72
2
 74
0
 75
0
 41
1.0
 42
0.0
  1

  3
Standard
100
AcDbAlignedDimension
 13
763.3888983990757424
 23
346.5532057517471003
 33
0.0
 14
869.3888983990757424
 24
346.553205751747214
 34
0.0
 50
0.0
100
AcDbRotatedDimension
1001
ACAD
1000
DSTYLE
1002
{
1070
144
1040
1.0
1070
40
1040
1.0
1002
}
  0
LWPOLYLINE
  5
7F
100
AcDbEntity
  8
0
 62
256
370
-1
 48
1.0
  6
BYLAYER
100
AcDbPolyline
 90
11
 70
128
 10
344.8489977466022083
 20
690.240319226902443
 10
346.8489977466022083
 20
690.240319226902443
 10
352.8489977466022083
 20
690.240319226902443
 10
371.8489977466022083
 20
690.240319226902443
 10
384.8489977466022083
 20
690.240319226902443
 10
384.8489977466022083
 20
685.240319226902443
 10
371.8489977466022083
 20
685.240319226902443
 10
352.8489977466022083
 20
685.240319226902443
 10
346.8489977466022083
 20
685.240319226902443
 10
344.8489977466022083
 20
685.240319226902443
 10
344.8489977466022083
 20
690.240319226902443
  0
DIMENSION
  5
80
100
AcDbEntity
  8
dimensions
 62
256
370
-1
 48
1.0
  6
BYLAYER
100
AcDbDimension
 10
457.0521229924526097
 20
869.1964072277265814
 30
0.0
 11
455.177122992452496
 21
861.6775609932701627
 31
0.0
 70
1
 71
8
 72
2
 74
0
 75
0
 41
1.0
 42
0.0
  1

  3
Standard
100
AcDbAlignedDimension
 13
452.3021229924527233
 23
869.1964072277266951
 33
0.0
 14
452.3021229924526665
 24
866.1914099743087263
 34
0.0
1001
ACAD
1000
DSTYLE
1002
{
1070
144
1040
1.0
1070
40
1040
1.0
1002
}
  0
DIMENSION
  5
81
100
AcDbEntity
  8
dimensions
 62
256
370
-1
 48
1.0
  6
BYLAYER
100
AcDbDimension
 10
236.1626553543322871
 20
633.606253102587516
 30
0.0
 11
234.2876553543322871
 21
557.106253102587516
 31
0.0
 70
0
 71
8
 72
2
 74
0
 75
0
 41
1.0
 42
0.0
  1

  3
Standard
100
AcDbAlignedDimension
 13
241.1626553543322871
 23
633.606253102587516
 33
0.0
 14
241.1626553543321734
 24
480.606253102587516
 34
0.0
 50
90.0
100
AcDbRotatedDimension
1001
ACAD
1000
DSTYLE
1002
{
1070
144
1040
1.0
1070
40
1040
1.0
1002
}
  0
DIMENSION
  5
82
100
AcDbEntity
  8
dimensions
 62
256
370
-1
 48
1.0
  6
BYLAYER
100
AcDbDimension
 10
483.3888983990756856
 20
626.5532057517471003
 30
0.0
 11
498.3918967511265237
 21
628.4282057517471003
 31
0.0
 70
0
 71
8
 72
2
 74
0
 75
0
 41
1.0
 42
0.0
  1

  3
Standard
100
AcDbAlignedDimension
 13
483.3888983990757424
 23
621.3561995261612765
 33
0.0
 14
513.3948951031773049
 24
621.3561995261612765
 34
0.0
 50
0.0
100
AcDbRotatedDimension
1001
ACAD
1000
DSTYLE
1002
{
1070
144
1040
1.0
1070
40
1040
1.0
1002
}
  0
DIMENSION
  5
83
100
AcDbEntity
  8
dimensions
 62
256
370
-1
 48
1.0
  6
BYLAYER
100
AcDbDimension
 10
550.4447461562681383
 20
317.3355838159127416
 30
0.0
 11
525.4437467055845445
 21
319.2105838159127416
 31
0.0
 70
0
 71
8
 72
2
 74
0
 75
0
 41
1.0
 42
0.0
  1

  3
Standard
100
AcDbAlignedDimension
 13
550.4447461562681383
 23
308.3239695299301957
 33
0.0
 14
500.4427472549009508
 24
308.3239695299301957
 34
0.0
 50
0.0
100
AcDbRotatedDimension
1001
ACAD
1000
DSTYLE
1002
{
1070
144
1040
1.0
1070
40
1040
1.0
1002
}
  0
LWPOLYLINE
  5
84
100
AcDbEntity
  8
0
 62
256
370
-1
 48
1.0
  6
BYLAYER
100
AcDbPolyline
 90
11
 70
128
 10
59.6038180416768739
 20
600.1590374840276354
 10
43.6018191403096864
 20
600.1590374840276354
 10
35.6038180416768739
 20
600.1590374840276354
 10
35.6038180416768739
 20
609.1590374840276354
 10
35.6038180416768739
 20
622.1590374840276354
 10
35.6038180416768739
 20
635.1590374840276354
 10
59.6038180416768739
 20
635.1590374840276354
 10
59.6038180416768739
 20
622.1590374840276354
 10
59.6038180416768739
 20
609.1590374840276354
 10
59.6038180416768739
 20
602.3070324791448229
 10
59.6038180416768739
 20
600.1590374840276354
  0
DIMENSION
  5
85
100
AcDbEntity
  8
dimensions
 62
256
370
-1
 48
1.0
  6
BYLAYER
100
AcDbDimension
 10
768.7833056404278977
 20
693.6533206274582426
 30
0.0
 11
777.439041862406043
 21
695.5283206274582426
 31
0.0
 70
0
 71
8
 72
2
 74
0
 75
0
 41
1.0
 42
0.0
  1

  3
Standard
100
AcDbAlignedDimension
 13
768.7833056404278977
 23
683.6503146460129301
 33
0.0
 14
772.786303992478679
 24
683.6503146460129301
 34
0.0
 50
0.0
100
AcDbRotatedDimension
1001
ACAD
1000
DSTYLE
1002
{
1070
144
1040
1.0
1070
40
1040
1.0
1002
}
  0
DIMENSION
  5
86
100
AcDbEntity
  8
dimensions
 62
256
370
-1
 48
1.0
  6
BYLAYER
100
AcDbDimension
 10
753.6480864332637566
 20
346.5532057517471003
 30
0.0
 11
751.7730864332637566
 21
270.053205751747214
 31
0.0
 70
0
 71
8
 72
2
 74
0
 75
0
 41
1.0
 42
0.0
  1

  3
Standard
100
AcDbAlignedDimension
 13
763.3888983990757424
 23
346.5532057517471003
 33
0.0
 14
763.3888983990757424
 24
193.5532057517473277
 34
0.0
 50
90.0
100
AcDbRotatedDimension
1001
ACAD
1000
DSTYLE
1002
{
1070
144
1040
1.0
1070
40
1040
1.0
1002
}
  0
LWPOLYLINE
  5
87
100
AcDbEntity
  8
0
 62
256
370
-1
 48
1.0
  6
BYLAYER
100
AcDbPolyline
 90
11
 70
128
 10
346.8489977466022083
 20
678.240319226902443
 10
352.8489977466022083
 20
678.240319226902443
 10
371.8489977466022083
 20
678.240319226902443
 10
384.8489977466022083
 20
678.240319226902443
 10
386.8489977466022083
 20
678.240319226902443
 10
386.8489977466022083
 20
673.240319226902443
 10
384.8489977466022083
 20
673.240319226902443
 10
371.8489977466022083
 20
673.240319226902443
 10
352.8489977466022083
 20
673.240319226902443
 10
346.8489977466022083
 20
673.240319226902443
 10
346.8489977466022083
 20
678.240319226902443
  0
DIMENSION
  5
88
100
AcDbEntity
  8
dimensions
 62
256
370
-1
 48
1.0
  6
BYLAYER
100
AcDbDimension
 10
509.0521229924527233
 20
871.1964072277268087
 30
0.0
 11
507.1771229924527233
 21
859.6775609932703901
 31
0.0
 70
1
 71
8
 72
2
 74
0
 75
0
 41
1.0
 42
0.0
  1

  3
Standard
100
AcDbAlignedDimension
 13
514.3021229924527233
 23
871.1964072277265814
 33
0.0
 14
514.3021229924527233
 24
864.1914099743087263
 34
0.0
1001
ACAD
1000
DSTYLE
1002
{
1070
144
1040
1.0
1070
40
1040
1.0
1002
}
  0
DIMENSION
  5
89
100
AcDbEntity
  8
dimensions
 62
256
370
-1
 48
1.0
  6
BYLAYER
100
AcDbDimension
 10
513.3948951031773049
 20
571.5761544696958936
 30
0.0
 11
548.3918967511265237
 21
573.4511544696958936
 31
0.0
 70
0
 71
8
 72
2
 74
0
 75
0
 41
1.0
 42
0.0
  1

  3
Standard
100
AcDbAlignedDimension
 13
513.3948951031773049
 23
591.3512099021377253
 33
0.0
 14
583.3888983990757424
 24
591.351209902137839
 34
0.0
 50
0.0
100
AcDbRotatedDimension
1001
ACAD
1000
DSTYLE
1002
{
1070
144
1040
1.0
1070
40
1040
1.0
1002
}
  0
DIMENSION
  5
8A
100
AcDbEntity
  8
dimensions
 62
256
370
-1
 48
1.0
  6
BYLAYER
100
AcDbDimension
 10
500.4427472549009508
 20
207.0759684312973832
 30
0.0
 11
603.4427472549009508
 21
208.9509684312973832
 31
0.0
 70
0
 71
8
 72
2
 74
0
 75
0
 41
1.0
 42
0.0
  1

  3
Standard
100
AcDbAlignedDimension
 13
500.4427472549009508
 23
222.0759684312972695
 33
0.0
 14
706.4427472549009508
 24
222.0759684312973832
 34
0.0
 50
0.0
100
AcDbRotatedDimension
1001
ACAD
1000
DSTYLE
1002
{
1070
144
1040
1.0
1070
40
1040
1.0
1002
}
  0
LWPOLYLINE
  5
8B
100
AcDbEntity
  8
0
 62
256
370
-1
 48
1.0
  6
BYLAYER
100
AcDbPolyline
 90
11
 70
128
 10
85.6038180416768739
 20
599.1590374840276354
 10
69.6018191403096864
 20
599.1590374840276354
 10
61.6038180416768739
 20
599.1590374840276354
 10
61.6038180416768739
 20
609.1590374840276354
 10
61.6038180416768739
 20
622.1590374840276354
 10
61.6038180416768739
 20
634.1590374840276354
 10
85.6038180416768739
 20
634.1590374840276354
 10
85.6038180416768739
 20
622.1590374840276354
 10
85.6038180416768739
 20
609.1590374840276354
 10
85.6038180416768739
 20
601.3070324791448229
 10
85.6038180416768739
 20
599.1590374840276354
  0
DIMENSION
  5
8C
100
AcDbEntity
  8
dimensions
 62
256
370
-1
 48
1.0
  6
BYLAYER
100
AcDbDimension
 10
772.786303992478679
 20
662.1913903686505591
 30
0.0
 11
712.786303992478679
 21
664.0663903686505591
 31
0.0
 70
0
 71
8
 72
2
 74
0
 75
0
 41
1.0
 42
0.0
  1

  3
Standard
100
AcDbAlignedDimension
 13
772.7863039924785653
 23
670.6533206274582426
 33
0.0
 14
652.786303992478679
 24
670.6533206274582426
 34
0.0
 50
0.0
100
AcDbRotatedDimension
1001
ACAD
1000
DSTYLE
1002
{
1070
144
1040
1.0
1070
40
1040
1.0
1002
}
  0
DIMENSION
  5
8D
100
AcDbEntity
  8
dimensions
 62
256
370
-1
 48
1.0
  6
BYLAYER
100
AcDbDimension
 10
828.3888983990757424
 20
330.5552046531142878
 30
0.0
 11
826.5138983990757424
 21
319.0363507892635653
 31
0.0
 70
0
 71
8
 72
2
 74
0
 75
0
 41
1.0
 42
0.0
  1

  3
Standard
100
AcDbAlignedDimension
 13
816.3888983990756287
 23
330.5552046531142878
 33
0.0
 14
816.3888983990757424
 24
323.5501997703020152
 34
0.0
 50
90.0
100
AcDbRotatedDimension
1001
ACAD
1000
DSTYLE
1002
{
1070
144
1040
1.0
1070
40
1040
1.0
1002
}
  0
LWPOLYLINE
  5
8E
100
AcDbEntity
  8
0
 62
256
370
-1
 48
1.0
  6
BYLAYER
100
AcDbPolyline
 90
10
 70
128
 10
346.8489977466022083
 20
696.240319226902443
 10
344.8489977466022083
 20
696.240319226902443
 10
344.8489977466022083
 20
701.240319226902443
 10
352.8489977466022083
 20
701.240319226902443
 10
371.8489977466022083
 20
701.240319226902443
 10
384.8489977466022083
 20
701.240319226902443
 10
384.8489977466022083
 20
696.240319226902443
 10
371.8489977466022083
 20
696.240319226902443
 10
352.8489977466022083
 20
696.240319226902443
 10
346.8489977466022083
 20
696.240319226902443
  0
DIMENSION
  5
8F
100
AcDbEntity
  8
dimensions
 62
256
370
-1
 48
1.0
  6
BYLAYER
100
AcDbDimension
 10
435.0521229924526097
 20
873.6944083263595076
 30
0.0
 11
433.1771229924526097
 21
867.6944083263595076
 31
0.0
 70
1
 71
8
 72
2
 74
0
 75
0
 41
1.0
 42
0.0
  1

  3
Standard
100
AcDbAlignedDimension
 13
453.3021229924526665
 23
873.6944083263595076
 33
0.0
 14
453.3021229924526665
 24
861.6944083263595076
 34
0.0
1001
ACAD
1000
DSTYLE
1002
{
1070
144
1040
1.0
1070
40
1040
1.0
1002
}
  0
DIMENSION
  5
90
100
AcDbEntity
  8
dimensions
 62
256
370
-1
 48
1.0
  6
BYLAYER
100
AcDbDimension
 10
483.3888983990757424
 20
570.9474365209780444
 30
0.0
 11
465.3403983380405293
 21
572.8224365209780444
 31
0.0
 70
0
 71
8
 72
2
 74
0
 75
0
 41
1.0
 42
0.0
  1

  3
Standard
100
AcDbAlignedDimension
 13
483.3888983990756856
 23
591.3512099021377253
 33
0.0
 14
447.2918982770053731
 24
591.3512099021377253
 34
0.0
 50
0.0
100
AcDbRotatedDimension
1001
ACAD
1000
DSTYLE
1002
{
1070
144
1040
1.0
1070
40
1040
1.0
1002
}
  0
DIMENSION
  5
91
100
AcDbEntity
  8
dimensions
 62
256
370
-1
 48
1.0
  6
BYLAYER
100
AcDbDimension
 10
557.4427472549009508
 20
431.0759684312972695
 30
0.0
 11
555.5677472549009508
 21
369.6999689806137326
 31
0.0
 70
0
 71
8
 72
2
 74
0
 75
0
 41
1.0
 42
0.0
  1

  3
Standard
100
AcDbAlignedDimension
 13
550.4447461562681383
 23
431.0759684312972695
 33
0.0
 14
550.4447461562681383
 24
308.3239695299301957
 34
0.0
 50
90.0
100
AcDbRotatedDimension
1001
ACAD
1000
DSTYLE
1002
{
1070
144
1040
1.0
1070
40
1040
1.0
1002
}
  0
LWPOLYLINE
  5
92
100
AcDbEntity
  8
0
 62
256
370
-1
 48
1.0
  6
BYLAYER
100
AcDbPolyline
 90
5
 70
128
 10
116.6038180416768739
 20
579.1590374840276354
 10
116.6038180416768739
 20
609.1590374840276354
 10
151.6038180416768739
 20
609.1590374840276354
 10
151.6038180416768739
 20
579.1590374840276354
 10
116.6038180416768739
 20
579.1590374840276354
  0
DIMENSION
  5
93
100
AcDbEntity
  8
dimensions
 62
256
370
-1
 48
1.0
  6
BYLAYER
100
AcDbDimension
 10
781.3210145409980214
 20
683.6503146460129301
 30
0.0
 11
779.4460145409980214
 21
677.1518176367355863
 31
0.0
 70
0
 71
8
 72
2
 74
0
 75
0
 41
1.0
 42
0.0
  1

  3
Standard
100
AcDbAlignedDimension
 13
772.786303992478679
 23
683.6503146460129301
 33
0.0
 14
772.7863039924785653
 24
670.6533206274582426
 34
0.0
 50
90.0
100
AcDbRotatedDimension
1001
ACAD
1000
DSTYLE
1002
{
1070
144
1040
1.0
1070
40
1040
1.0
1002
}
  0
LWPOLYLINE
  5
94
100
AcDbEntity
  8
0
 62
256
370
-1
 48
1.0
  6
BYLAYER
100
AcDbPolyline
 90
7
 70
128
 10
432.8489977466022083
 20
673.240319226902443
 10
430.8489977466022083
 20
673.240319226902443
 10
392.8489977466022083
 20
673.240319226902443
 10
392.8489977466022083
 20
678.240319226902443
 10
430.8489977466022083
 20
678.240319226902443
 10
432.8489977466022083
 20
678.240319226902443
 10
432.8489977466022083
 20
673.240319226902443
  0
DIMENSION
  5
95
100
AcDbEntity
  8
dimensions
 62
256
370
-1
 48
1.0
  6
BYLAYER
100
AcDbDimension
 10
520.3021229924527233
 20
881.6944083263593939
 30
0.0
 11
484.0521229924527233
 21
883.5694083263593939
 31
0.0
 70
0
 71
8
 72
2
 74
0
 75
0
 41
1.0
 42
0.0
  1

  3
Standard
100
AcDbAlignedDimension
 13
520.3021229924527233
 23
867.6944083263592802
 33
0.0
 14
447.8021229924526665
 24
867.6944083263595076
 34
0.0
 50
0.0
100
AcDbRotatedDimension
1001
ACAD
1000
DSTYLE
1002
{
1070
144
1040
1.0
1070
40
1040
1.0
1002
}
  0
DIMENSION
  5
96
100
AcDbEntity
  8
dimensions
 62
256
370
-1
 48
1.0
  6
BYLAYER
100
AcDbDimension
 10
613.3948951031773049
 20
561.674698390870617
 30
0.0
 11
630.3433966900913674
 21
563.549698390870617
 31
0.0
 70
0
 71
8
 72
2
 74
0
 75
0
 41
1.0
 42
0.0
  1

  3
Standard
100
AcDbAlignedDimension
 13
613.3948951031773049
 23
591.351209902137839
 33
0.0
 14
647.2918982770054299
 24
567.553205751747214
 34
0.0
 50
0.0
100
AcDbRotatedDimension
1001
ACAD
1000
DSTYLE
1002
{
1070
144
1040
1.0
1070
40
1040
1.0
1002
}
  0
DIMENSION
  5
97
100
AcDbEntity
  8
dimensions
 62
256
370
-1
 48
1.0
  6
BYLAYER
100
AcDbDimension
 10
487.4427472549009508
 20
308.3239695299301957
 30
0.0
 11
485.5677472549009508
 21
265.1999689806137326
 31
0.0
 70
0
 71
8
 72
2
 74
0
 75
0
 41
1.0
 42
0.0
  1

  3
Standard
100
AcDbAlignedDimension
 13
500.4427472549009508
 23
308.3239695299301957
 33
0.0
 14
500.4427472549009508
 24
222.0759684312972695
 34
0.0
 50
90.0
100
AcDbRotatedDimension
1001
ACAD
1000
DSTYLE
1002
{
1070
144
1040
1.0
1070
40
1040
1.0
1002
}
  0
LWPOLYLINE
  5
98
100
AcDbEntity
  8
0
 62
256
370
-1
 48
1.0
  6
BYLAYER
100
AcDbPolyline
 90
11
 70
128
 10
168.6038180416768739
 20
555.6590374840276354
 10
168.6038180416768739
 20
558.1590374840276354
 10
168.6038180416768739
 20
579.1590374840276354
 10
168.6038180416768739
 20
595.6590374840276354
 10
191.8018160885518739
 20
595.6590374840276354
 10
214.1068087643331239
 20
595.6590374840276354
 10
223.6038180416768739
 20
595.6590374840276354
 10
223.6038180416768739
 20
579.1590374840276354
 10
223.6038180416768739
 20
558.1590374840276354
 10
223.6038180416768739
 20
555.6590374840276354
 10
168.6038180416768739
 20
555.6590374840276354
  0
LWPOLYLINE
  5
99
100
AcDbEntity
  8
0
 62
256
370
-1
 48
1.0
  6
BYLAYER
100
AcDbPolyline
 90
7
 70
128
 10
390.8489977466022083
 20
690.240319226902443
 10
392.8489977466022083
 20
690.240319226902443
 10
430.8489977466022083
 20
690.240319226902443
 10
430.8489977466022083
 20
685.240319226902443
 10
392.8489977466022083
 20
685.240319226902443
 10
390.8489977466022083
 20
685.240319226902443
 10
390.8489977466022083
 20
690.240319226902443
  0
DIMENSION
  5
9A
100
AcDbEntity
  8
dimensions
 62
256
370
-1
 48
1.0
  6
BYLAYER
100
AcDbDimension
 10
447.2918982770053731
 20
646.5532057517471003
 30
0.0
 11
547.2918982770054299
 21
648.4282057517471003
 31
0.0
 70
0
 71
8
 72
2
 74
0
 75
0
 41
1.0
 42
0.0
  1

  3
Standard
100
AcDbAlignedDimension
 13
447.2918982770053731
 23
641.5532057517471003
 33
0.0
 14
647.2918982770054299
 24
641.5532057517471003
 34
0.0
 50
0.0
100
AcDbRotatedDimension
1001
ACAD
1000
DSTYLE
1002
{
1070
144
1040
1.0
1070
40
1040
1.0
1002
}
  0
DIMENSION
  5
9B
100
AcDbEntity
  8
dimensions
 62
256
370
-1
 48
1.0
  6
BYLAYER
100
AcDbDimension
 10
647.4427472549009508
 20
431.0759684312972695
 30
0.0
 11
645.5677472549009508
 21
369.6999689806137326
 31
0.0
 70
0
 71
8
 72
2
 74
0
 75
0
 41
1.0
 42
0.0
  1

  3
Standard
100
AcDbAlignedDimension
 13
656.4397469955015367
 23
431.0759684312972695
 33
0.0
 14
656.4397469955015367
 24
308.3239695299301957
 34
0.0
 50
90.0
100
AcDbRotatedDimension
1001
ACAD
1000
DSTYLE
1002
{
1070
144
1040
1.0
1070
40
1040
1.0
1002
}
  0
LWPOLYLINE
  5
9C
100
AcDbEntity
  8
0
 62
256
370
-1
 48
1.0
  6
BYLAYER
100
AcDbPolyline
 90
9
 70
128
 10
137.6038180416768739
 20
558.1590374840276354
 10
137.6038180416768739
 20
535.6570385826604479
 10
137.6038180416768739
 20
528.1590374840276354
 10
115.1018191403096864
 20
528.1590374840276354
 10
107.6038180416768739
 20
528.1590374840276354
 10
107.6038180416768739
 20
558.1590374840276354
 10
115.1018191403096864
 20
558.1590374840276354
 10
130.1068240231221864
 20
558.1590374840276354
 10
137.6038180416768739
 20
558.1590374840276354
  0
LWPOLYLINE
  5
9D
100
AcDbEntity
  8
0
 62
256
370
-1
 48
1.0
  6
BYLAYER
100
AcDbPolyline
 90
6
 70
128
 10
392.8489977466022083
 20
696.240319226902443
 10
390.8489977466022083
 20
696.240319226902443
 10
390.8489977466022083
 20
701.240319226902443
 10
430.8489977466022083
 20
701.240319226902443
 10
430.8489977466022083
 20
696.240319226902443
 10
392.8489977466022083
 20
696.240319226902443
  0
DIMENSION
  5
9E
100
AcDbEntity
  8
dimensions
 62
256
370
-1
 48
1.0
  6
BYLAYER
100
AcDbDimension
 10
476.4355105101312802
 20
621.3561995261612765
 30
0.0
 11
474.5605105101312802
 21
606.353704714149444
 31
0.0
 70
0
 71
8
 72
2
 74
0
 75
0
 41
1.0
 42
0.0
  1

  3
Standard
100
AcDbAlignedDimension
 13
483.3888983990757424
 23
621.3561995261612765
 33
0.0
 14
483.3888983990756856
 24
591.3512099021377253
 34
0.0
 50
90.0
100
AcDbRotatedDimension
1001
ACAD
1000
DSTYLE
1002
{
1070
144
1040
1.0
1070
40
1040
1.0
1002
}
  0
LWPOLYLINE
  5
9F
100
AcDbEntity
  8
0
 62
256
370
-1
 48
1.0
  6
BYLAYER
100
AcDbPolyline
 90
8
 70
128
 10
54.6038180416768739
 20
652.1590374840276354
 10
54.6038180416768739
 20
682.1590374840276354
 10
89.6038180416768739
 20
682.1590374840276354
 10
89.6038180416768739
 20
652.1590374840276354
 10
85.6038180416768739
 20
652.1590374840276354
 10
61.6038180416768739
 20
652.1590374840276354
 10
59.6038180416768739
 20
652.1590374840276354
 10
54.6038180416768739
 20
652.1590374840276354
  0
LWPOLYLINE
  5
A0
100
AcDbEntity
  8
0
 62
256
370
-1
 48
1.0
  6
BYLAYER
100
AcDbPolyline
 90
6
 70
128
 10
239.8489977466022083
 20
671.240319226902443
 10
239.8489977466022083
 20
877.2403192269023293
 10
326.095999394551427
 20
877.2403192269023293
 10
326.095999394551427
 20
872.2433175789531106
 10
326.095999394551427
 20
671.240319226902443
 10
239.8489977466022083
 20
671.240319226902443
  0
DIMENSION
  5
A1
100
AcDbEntity
  8
dimensions
 62
256
370
-1
 48
1.0
  6
BYLAYER
100
AcDbDimension
 10
438.1885019631228033
 20
641.5532057517471003
 30
0.0
 11
436.3135019631228033
 21
565.0532057517471003
 31
0.0
 70
0
 71
8
 72
2
 74
0
 75
0
 41
1.0
 42
0.0
  1

  3
Standard
100
AcDbAlignedDimension
 13
447.2918982770053731
 23
641.5532057517471003
 33
0.0
 14
447.2918982770054299
 24
488.553205751747214
 34
0.0
 50
90.0
100
AcDbRotatedDimension
1001
ACAD
1000
DSTYLE
1002
{
1070
144
1040
1.0
1070
40
1040
1.0
1002
}
  0
LWPOLYLINE
  5
A2
100
AcDbEntity
  8
0
 62
256
370
-1
 48
1.0
  6
BYLAYER
100
AcDbPolyline
 90
9
 70
128
 10
138.6038180416768739
 20
652.1590374840276354
 10
138.6038180416768739
 20
629.6570385826604479
 10
138.6038180416768739
 20
622.1590374840276354
 10
116.1018191403096864
 20
622.1590374840276354
 10
108.6038180416768739
 20
622.1590374840276354
 10
108.6038180416768739
 20
652.1590374840276354
 10
116.1018191403096864
 20
652.1590374840276354
 10
131.1068240231221864
 20
652.1590374840276354
 10
138.6038180416768739
 20
652.1590374840276354
  0
DIMENSION
  5
A3
100
AcDbEntity
  8
dimensions
 62
256
370
-1
 48
1.0
  6
BYLAYER
100
AcDbDimension
 10
239.8489977466022367
 20
883.240319226902443
 30
0.0
 11
282.9724985705768177
 21
885.115319226902443
 31
0.0
 70
0
 71
8
 72
2
 74
0
 75
0
 41
1.0
 42
0.0
  1

  3
Standard
100
AcDbAlignedDimension
 13
239.8489977466021799
 23
877.2403192269023293
 33
0.0
 14
326.095999394551427
 24
877.2403192269023293
 34
0.0
 50
0.0
100
AcDbRotatedDimension
1001
ACAD
1000
DSTYLE
1002
{
1070
144
1040
1.0
1070
40
1040
1.0
1002
}
  0
DIMENSION
  5
A4
100
AcDbEntity
  8
dimensions
 62
256
370
-1
 48
1.0
  6
BYLAYER
100
AcDbDimension
 10
620.7786729032936819
 20
641.5532057517471003
 30
0.0
 11
618.9036729032936819
 21
631.4547026389541315
 31
0.0
 70
0
 71
8
 72
2
 74
0
 75
0
 41
1.0
 42
0.0
  1

  3
Standard
100
AcDbAlignedDimension
 13
613.3948951031773049
 23
641.5532057517471003
 33
0.0
 14
613.3948951031773049
 24
621.3561995261611628
 34
0.0
 50
90.0
100
AcDbRotatedDimension
1001
ACAD
1000
DSTYLE
1002
{
1070
144
1040
1.0
1070
40
1040
1.0
1002
}
  0
LWPOLYLINE
  5
A5
100
AcDbEntity
  8
0
 62
256
370
-1
 48
1.0
  6
BYLAYER
100
AcDbPolyline
 90
6
 70
128
 10
59.6038180416768739
 20
492.1590374840276354
 10
59.6038180416768739
 20
522.1590374840276354
 10
81.6038180416768739
 20
522.1590374840276354
 10
94.6038180416768739
 20
522.1590374840276354
 10
94.6038180416768739
 20
492.1590374840276354
 10
59.6038180416768739
 20
492.1590374840276354
  0
DIMENSION
  5
A6
100
AcDbEntity
  8
dimensions
 62
256
370
-1
 48
1.0
  6
BYLAYER
100
AcDbDimension
 10
352.8489977466022083
 20
886.1285898821729461
 30
0.0
 11
362.8489977466022083
 21
888.0035898821729461
 31
0.0
 70
0
 71
8
 72
2
 74
0
 75
0
 41
1.0
 42
0.0
  1

  3
Standard
100
AcDbAlignedDimension
 13
352.8489977466022083
 23
881.2403192269023293
 33
0.0
 14
372.8489977466022083
 24
881.2403192269023293
 34
0.0
 50
0.0
100
AcDbRotatedDimension
1001
ACAD
1000
DSTYLE
1002
{
1070
144
1040
1.0
1070
40
1040
1.0
1002
}
  0
LWPOLYLINE
  5
A7
100
AcDbEntity
  8
0
 62
256
370
-1
 48
1.0
  6
BYLAYER
100
AcDbPolyline
 90
8
 70
128
 10
23.6038180416768739
 20
492.1590374840276354
 10
23.6038180416768739
 20
522.1590374840276354
 10
31.6038180416768739
 20
522.1590374840276354
 10
55.6038180416768739
 20
522.1590374840276354
 10
57.6038180416768739
 20
522.1590374840276354
 10
58.6038180416768739
 20
522.1590374840276354
 10
58.6038180416768739
 20
492.1590374840276354
 10
23.6038180416768739
 20
492.1590374840276354
  0
DIMENSION
  5
A8
100
AcDbEntity
  8
dimensions
 62
256
370
-1
 48
1.0
  6
BYLAYER
100
AcDbDimension
 10
390.8489977466022083
 20
886.1285898821729461
 30
0.0
 11
400.8489977466022083
 21
888.0035898821729461
 31
0.0
 70
0
 71
8
 72
2
 74
0
 75
0
 41
1.0
 42
0.0
  1

  3
Standard
100
AcDbAlignedDimension
 13
390.8489977466022083
 23
881.2403192269023293
 33
0.0
 14
410.8489977466022083
 24
881.2403192269023293
 34
0.0
 50
0.0
100
AcDbRotatedDimension
1001
ACAD
1000
DSTYLE
1002
{
1070
144
1040
1.0
1070
40
1040
1.0
1002
}
  0
LWPOLYLINE
  5
A9
100
AcDbEntity
  8
0
 62
256
370
-1
 48
1.0
  6
BYLAYER
100
AcDbPolyline
 90
25
 70
128
 10
44.8628207272237489
 20
609.1590374840276354
 10
44.3658190792745302
 20
608.6620434654729479
 10
43.7968188351339052
 20
607.5460308922307604
 10
43.6018191403096864
 20
606.3090313805120104
 10
43.7968188351339052
 20
605.0720318687932604
 10
44.2459994381612489
 20
604.1910351646916979
 10
44.3658190792745302
 20
603.9560345543401354
 10
45.2508212155049989
 20
603.0710400475041979
 10
46.3668185299581239
 20
602.5020398033635729
 10
47.6038180416768739
 20
602.3070324791448229
 10
48.8408175533956239
 20
602.5020398033635729
 10
49.9568148678487489
 20
603.0710400475041979
 10
50.8418170040792177
 20
603.9560345543401354
 10
50.9616366451924989
 20
604.1910351646916979
 10
51.4108172482198427
 20
605.0720318687932604
 10
51.6068163937276552
 20
606.3090313805120104
 10
51.4108172482198427
 20
607.5460308922307604
 10
50.8418170040792177
 20
608.6620434654729479
 10
50.3448153561299989
 20
609.1590374840276354
 10
49.9568148678487489
 20
609.5470379723088854
 10
48.8408175533956239
 20
610.1160382164495104
 10
47.6038180416768739
 20
610.3120373619573229
 10
46.3668185299581239
 20
610.1160382164495104
 10
45.2508212155049989
 20
609.5470379723088854
 10
44.8628207272237489
 20
609.1590374840276354
  0
DIMENSION
  5
AA
100
AcDbEntity
  8
dimensions
 62
256
370
-1
 48
1.0
  6
BYLAYER
100
AcDbDimension
 10
371.8489977466022083
 20
828.6243163778993903
 30
0.0
 11
433.3474985705768177
 21
830.4993163778993903
 31
0.0
 70
0
 71
8
 72
2
 74
0
 75
0
 41
1.0
 42
0.0
  1

  3
Standard
100
AcDbAlignedDimension
 13
371.8489977466022083
 23
822.2403192269023293
 33
0.0
 14
494.845999394551427
 24
822.2403192269023293
 34
0.0
 50
0.0
100
AcDbRotatedDimension
1001
ACAD
1000
DSTYLE
1002
{
1070
144
1040
1.0
1070
40
1040
1.0
1002
}
  0
LWPOLYLINE
  5
AB
100
AcDbEntity
  8
0
 62
256
370
-1
 48
1.0
  6
BYLAYER
100
AcDbPolyline
 90
25
 70
128
 10
74.5694399899190614
 20
609.1590374840276354
 10
73.6038180416768739
 20
609.3120373619573229
 10
72.6381960934346864
 20
609.1590374840276354
 10
72.3668185299581239
 20
609.1160382164495104
 10
71.2508212155049989
 20
608.5470379723088854
 10
70.3658114498799989
 20
607.6620434654729479
 10
69.7968112057393739
 20
606.5460308922307604
 10
69.6018191403096864
 20
605.3090313805120104
 10
69.7780581539815614
 20
604.1910351646916979
 10
69.7968112057393739
 20
604.0720318687932604
 10
70.3658114498799989
 20
602.9560345543401354
 10
71.2508212155049989
 20
602.0710400475041979
 10
72.3668185299581239
 20
601.5020398033635729
 10
73.6038180416768739
 20
601.3070324791448229
 10
74.8408175533956239
 20
601.5020398033635729
 10
75.9568148678487489
 20
602.0710400475041979
 10
76.8418246334737489
 20
602.9560345543401354
 10
77.4108248776143739
 20
604.0720318687932604
 10
77.4296694821065614
 20
604.1910351646916979
 10
77.6068240231221864
 20
605.3090313805120104
 10
77.4108248776143739
 20
606.5460308922307604
 10
76.8418246334737489
 20
607.6620434654729479
 10
75.9568148678487489
 20
608.5470379723088854
 10
74.8408175533956239
 20
609.1160382164495104
 10
74.5694399899190614
 20
609.1590374840276354
  0
DIMENSION
  5
AC
100
AcDbEntity
  8
dimensions
 62
256
370
-1
 48
1.0
  6
BYLAYER
100
AcDbDimension
 10
344.8489977466022083
 20
705.266769674916759
 30
0.0
 11
364.8489977466022083
 21
707.141769674916759
 31
0.0
 70
0
 71
8
 72
2
 74
0
 75
0
 41
1.0
 42
0.0
  1

  3
Standard
100
AcDbAlignedDimension
 13
344.8489977466021514
 23
701.240319226902443
 33
0.0
 14
384.8489977466022083
 24
701.240319226902443
 34
0.0
 50
0.0
100
AcDbRotatedDimension
1001
ACAD
1000
DSTYLE
1002
{
1070
144
1040
1.0
1070
40
1040
1.0
1002
}
  0
LWPOLYLINE
  5
AD
100
AcDbEntity
  8
0
 62
256
370
-1
 48
1.0
  6
BYLAYER
100
AcDbPolyline
 90
23
 70
128
 10
42.3668185299581239
 20
529.5020398033635729
 10
43.6038180416768739
 20
529.3070401085393542
 10
44.8408175533956239
 20
529.5020398033635729
 10
45.9568148678487489
 20
530.0710400475041979
 10
46.3488207882589052
 20
530.4630383385198229
 10
46.8418170040792177
 20
530.9560345543401354
 10
47.4108172482198427
 20
532.0720394981877917
 10
47.6068163937276552
 20
533.3090390099065417
 10
47.4108172482198427
 20
534.5460385216252917
 10
46.8418170040792177
 20
535.6620358360784167
 10
45.9568148678487489
 20
536.5470379723088854
 10
44.8408175533956239
 20
537.1160382164495104
 10
43.6038180416768739
 20
537.3120373619573229
 10
42.3668185299581239
 20
537.1160382164495104
 10
41.2508212155049989
 20
536.5470379723088854
 10
40.3658190792745302
 20
535.6620358360784167
 10
39.7968188351339052
 20
534.5460385216252917
 10
39.6018191403096864
 20
533.3090390099065417
 10
39.7968188351339052
 20
532.0720394981877917
 10
40.3658190792745302
 20
530.9560345543401354
 10
40.8588152950948427
 20
530.4630383385198229
 10
41.2508212155049989
 20
530.0710400475041979
 10
42.3668185299581239
 20
529.5020398033635729
  0
DIMENSION
  5
AE
100
AcDbEntity
  8
dimensions
 62
256
370
-1
 48
1.0
  6
BYLAYER
100
AcDbDimension
 10
390.8489977466022083
 20
705.4112051612696632
 30
0.0
 11
410.8489977466022083
 21
707.2862051612696632
 31
0.0
 70
0
 71
8
 72
2
 74
0
 75
0
 41
1.0
 42
0.0
  1

  3
Standard
100
AcDbAlignedDimension
 13
390.8489977466022083
 23
701.240319226902443
 33
0.0
 14
430.8489977466022083
 24
701.2403192269023293
 34
0.0
 50
0.0
100
AcDbRotatedDimension
1001
ACAD
1000
DSTYLE
1002
{
1070
144
1040
1.0
1070
40
1040
1.0
1002
}
  0
LWPOLYLINE
  5
AF
100
AcDbEntity
  8
0
 62
256
370
-1
 48
1.0
  6
BYLAYER
100
AcDbPolyline
 90
23
 70
128
 10
68.3668185299581239
 20
528.5020398033635729
 10
69.6038180416768739
 20
528.3070401085393542
 10
70.8408175533956239
 20
528.5020398033635729
 10
71.9568148678487489
 20
529.0710400475041979
 10
72.8418246334737489
 20
529.9560345543401354
 10
73.1003085201924989
 20
530.4630383385198229
 10
73.4108248776143739
 20
531.0720394981877917
 10
73.6068240231221864
 20
532.3090390099065417
 10
73.4108248776143739
 20
533.5460385216252917
 10
72.8418246334737489
 20
534.6620358360784167
 10
71.9568148678487489
 20
535.5470379723088854
 10
70.8408175533956239
 20
536.1160382164495104
 10
69.6038180416768739
 20
536.3120373619573229
 10
68.3668185299581239
 20
536.1160382164495104
 10
67.2508212155049989
 20
535.5470379723088854
 10
66.3658114498799989
 20
534.6620358360784167
 10
65.7968112057393739
 20
533.5460385216252917
 10
65.6018191403096864
 20
532.3090390099065417
 10
65.7968112057393739
 20
531.0720394981877917
 10
66.1073275631612489
 20
530.4630383385198229
 10
66.3658114498799989
 20
529.9560345543401354
 10
67.2508212155049989
 20
529.0710400475041979
 10
68.3668185299581239
 20
528.5020398033635729
  0
DIMENSION
  5
B0
100
AcDbEntity
  8
dimensions
 62
256
370
-1
 48
1.0
  6
BYLAYER
100
AcDbDimension
 10
390.8489977466022083
 20
693.2403192269023293
 30
0.0
 11
410.8489977466022083
 21
695.1153192269023293
 31
0.0
 70
0
 71
8
 72
2
 74
0
 75
0
 41
1.0
 42
0.0
  1

  3
Standard
100
AcDbAlignedDimension
 13
390.8489977466022083
 23
690.240319226902443
 33
0.0
 14
430.8489977466022083
 24
690.240319226902443
 34
0.0
 50
0.0
100
AcDbRotatedDimension
1001
ACAD
1000
DSTYLE
1002
{
1070
144
1040
1.0
1070
40
1040
1.0
1002
}
  0
LWPOLYLINE
  5
B1
100
AcDbEntity
  8
0
 62
256
370
-1
 48
1.0
  6
BYLAYER
100
AcDbPolyline
 90
23
 70
128
 10
115.4688235348409364
 20
545.4770382774846667
 10
115.1018191403096864
 20
543.1590374840276354
 10
115.4688235348409364
 20
540.8410366905706042
 10
116.5338107174581239
 20
538.7490338219182604
 10
118.1938143795674989
 20
537.0890377892034167
 10
120.2858248776143739
 20
536.0240353477971667
 10
122.6038180416768739
 20
535.6570385826604479
 10
124.9218112057393739
 20
536.0240353477971667
 10
127.0138217037862489
 20
537.0890377892034167
 10
128.6738253658956239
 20
538.7490338219182604
 10
129.7388125485128114
 20
540.8410366905706042
 10
130.1068240231221864
 20
543.1590374840276354
 10
129.7388125485128114
 20
545.4770382774846667
 10
129.0413790768331239
 20
546.8470410240666979
 10
128.6738253658956239
 20
547.5690411461370104
 10
127.0138217037862489
 20
549.2290371788518542
 10
124.9218112057393739
 20
550.2940396202581042
 10
122.6038180416768739
 20
550.6620358360784167
 10
120.2858248776143739
 20
550.2940396202581042
 10
118.1938143795674989
 20
549.2290371788518542
 10
116.5338107174581239
 20
547.5690411461370104
 10
116.1662570065206239
 20
546.8470410240666979
 10
115.4688235348409364
 20
545.4770382774846667
  0
DIMENSION
  5
B2
100
AcDbEntity
  8
dimensions
 62
256
370
-1
 48
1.0
  6
BYLAYER
100
AcDbDimension
 10
384.8489977466022083
 20
693.1341888212710955
 30
0.0
 11
364.8489977466022083
 21
695.0091888212710955
 31
0.0
 70
0
 71
8
 72
2
 74
0
 75
0
 41
1.0
 42
0.0
  1

  3
Standard
100
AcDbAlignedDimension
 13
384.8489977466022083
 23
690.240319226902443
 33
0.0
 14
344.8489977466022083
 24
690.240319226902443
 34
0.0
 50
0.0
100
AcDbRotatedDimension
1001
ACAD
1000
DSTYLE
1002
{
1070
144
1040
1.0
1070
40
1040
1.0
1002
}
  0
LWPOLYLINE
  5
B3
100
AcDbEntity
  8
0
 62
256
370
-1
 48
1.0
  6
BYLAYER
100
AcDbPolyline
 90
23
 70
128
 10
131.0750704830831239
 20
636.9590405357854479
 10
131.1068240231221864
 20
637.1590374840276354
 10
130.7388125485128114
 20
639.4770306480901354
 10
129.6738253658956239
 20
641.5690411461370104
 10
128.0138217037862489
 20
643.2290448082463854
 10
125.9218112057393739
 20
644.2940319908635729
 10
123.6038180416768739
 20
644.6620434654729479
 10
121.2858248776143739
 20
644.2940319908635729
 10
119.1938143795674989
 20
643.2290448082463854
 10
117.5338107174581239
 20
641.5690411461370104
 10
116.4688235348409364
 20
639.4770306480901354
 10
116.1018191403096864
 20
637.1590374840276354
 10
116.1334811276143739
 20
636.9590405357854479
 10
116.4688235348409364
 20
634.8410443199651354
 10
117.5338107174581239
 20
632.7490338219182604
 10
119.1938143795674989
 20
631.0890301598088854
 10
121.2858248776143739
 20
630.0240429771916979
 10
123.6038180416768739
 20
629.6570385826604479
 10
125.9218112057393739
 20
630.0240429771916979
 10
128.0138217037862489
 20
631.0890301598088854
 10
129.6738253658956239
 20
632.7490338219182604
 10
130.7388125485128114
 20
634.8410443199651354
 10
131.0750704830831239
 20
636.9590405357854479
  0
DIMENSION
  5
B4
100
AcDbEntity
  8
dimensions
 62
256
370
-1
 48
1.0
  6
BYLAYER
100
AcDbDimension
 10
346.8489977466021514
 20
681.0016079676254321
 30
0.0
 11
366.8489977466022083
 21
682.8766079676254321
 31
0.0
 70
0
 71
8
 72
2
 74
0
 75
0
 41
1.0
 42
0.0
  1

  3
Standard
100
AcDbAlignedDimension
 13
346.8489977466022083
 23
678.2403192269023293
 33
0.0
 14
386.8489977466022083
 24
678.240319226902443
 34
0.0
 50
0.0
100
AcDbRotatedDimension
1001
ACAD
1000
DSTYLE
1002
{
1070
144
1040
1.0
1070
40
1040
1.0
1002
}
  0
LWPOLYLINE
  5
B5
100
AcDbEntity
  8
0
 62
256
370
-1
 48
1.0
  6
BYLAYER
100
AcDbPolyline
 90
7
 70
128
 10
214.1068087643331239
 20
568.1570385826604479
 10
214.1068087643331239
 20
579.1590374840276354
 10
214.1068087643331239
 20
580.0620373619573229
 10
191.8018160885518739
 20
580.0620373619573229
 10
191.8018160885518739
 20
579.1590374840276354
 10
191.8018160885518739
 20
568.1570385826604479
 10
214.1068087643331239
 20
568.1570385826604479
  0
DIMENSION
  5
B6
100
AcDbEntity
  8
dimensions
 62
256
370
-1
 48
1.0
  6
BYLAYER
100
AcDbDimension
 10
392.8489977466022083
 20
681.0016079676254321
 30
0.0
 11
412.8489977466022083
 21
682.8766079676254321
 31
0.0
 70
0
 71
8
 72
2
 74
0
 75
0
 41
1.0
 42
0.0
  1

  3
Standard
100
AcDbAlignedDimension
 13
392.8489977466022083
 23
678.2403192269023293
 33
0.0
 14
432.8489977466022083
 24
678.240319226902443
 34
0.0
 50
0.0
100
AcDbRotatedDimension
1001
ACAD
1000
DSTYLE
1002
{
1070
144
1040
1.0
1070
40
1040
1.0
1002
}
  0
LWPOLYLINE
  5
B7
100
AcDbEntity
  8
0
 62
256
370
-1
 48
1.0
  6
BYLAYER
100
AcDbPolyline
 90
5
 70
128
 10
186.8018160885518739
 20
636.5620373619573229
 10
186.8018160885518739
 20
624.6570385826604479
 10
209.1068087643331239
 20
624.6570385826604479
 10
209.1068087643331239
 20
636.5620373619573229
 10
186.8018160885518739
 20
636.5620373619573229
  0
DIMENSION
  5
B8
100
AcDbEntity
  8
dimensions
 62
256
370
-1
 48
1.0
  6
BYLAYER
100
AcDbDimension
 10
347.8489977466022083
 20
881.2403192269023293
 30
0.0
 11
345.9739977466022083
 21
861.2403192269023293
 31
0.0
 70
0
 71
8
 72
2
 74
0
 75
0
 41
1.0
 42
0.0
  1

  3
Standard
100
AcDbAlignedDimension
 13
352.8489977466022083
 23
881.2403192269023293
 33
0.0
 14
352.8489977466022083
 24
841.2403192269023293
 34
0.0
 50
90.0
100
AcDbRotatedDimension
1001
ACAD
1000
DSTYLE
1002
{
1070
144
1040
1.0
1070
40
1040
1.0
1002
}
  0
DIMENSION
  5
B9
100
AcDbEntity
  8
dimensions
 62
256
370
-1
 48
1.0
  6
BYLAYER
100
AcDbDimension
 10
233.3541330804426934
 20
877.2403192269023293
 30
0.0
 11
231.4791330804426934
 21
774.2403192269023293
 31
0.0
 70
0
 71
8
 72
2
 74
0
 75
0
 41
1.0
 42
0.0
  1

  3
Standard
100
AcDbAlignedDimension
 13
239.8489977466021799
 23
877.2403192269023293
 33
0.0
 14
239.8489977466021514
 24
671.240319226902443
 34
0.0
 50
90.0
100
AcDbRotatedDimension
1001
ACAD
1000
DSTYLE
1002
{
1070
144
1040
1.0
1070
40
1040
1.0
1002
}
  0
DIMENSION
  5
BA
100
AcDbEntity
  8
dimensions
 62
256
370
-1
 48
1.0
  6
BYLAYER
100
AcDbDimension
 10
366.1330979427408465
 20
822.2403192269023293
 30
0.0
 11
364.2580979427408465
 21
769.2428197609599465
 31
0.0
 70
0
 71
8
 72
2
 74
0
 75
0
 41
1.0
 42
0.0
  1

  3
Standard
100
AcDbAlignedDimension
 13
371.8489977466022083
 23
822.2403192269023293
 33
0.0
 14
371.8489977466022083
 24
716.2453202950175637
 34
0.0
 50
90.0
100
AcDbRotatedDimension
1001
ACAD
1000
DSTYLE
1002
{
1070
144
1040
1.0
1070
40
1040
1.0
1002
}
  0
ENDSEC
  0
SECTION
  2
OBJECTS
  0
DICTIONARY
  5
C
100
AcDbDictionary
280
0
281
1
  3
ACAD_GROUP
350
D
  3
ACAD_LAYOUT
350
1A
  3
ACAD_MLINESTYLE
350
17
  3
ACAD_PLOTSETTINGS
350
19
  3
ACAD_PLOTSTYLENAME
350
E
  3
AcDbVariableDictionary
350
BB
  3
QCAD_OBJECTS
350
BC
  0
DICTIONARY
  5
D
100
AcDbDictionary
280
0
281
1
  0
ACDBDICTIONARYWDFLT
  5
E
100
AcDbDictionary
281
1
  3
Normal
350
F
100
AcDbDictionaryWithDefault
340
F
  0
ACDBPLACEHOLDER
  5
F
  0
DICTIONARY
  5
17
100
AcDbDictionary
280
0
281
1
  3
Standard
350
18
  0
MLINESTYLE
  5
18
100
AcDbMlineStyle
  2
STANDARD
 70
0
  3

 62
256
 51
90.0
 52
90.0
 71
2
 49
0.5
 62
256
  6
BYLAYER
 49
-0.5
 62
256
  6
BYLAYER
  0
DICTIONARY
  5
19
100
AcDbDictionary
280
0
281
1
  0
DICTIONARY
  5
1A
100
AcDbDictionary
281
1
  3
Layout1
350
1E
  3
Layout2
350
26
  3
Model
350
22
  0
LAYOUT
  5
1E
100
AcDbPlotSettings
  1

  2
none_device
  4

  6

 40
0.0
 41
0.0
 42
0.0
 43
0.0
 44
0.0
 45
0.0
 46
0.0
 47
0.0
 48
0.0
 49
0.0
140
0.0
141
0.0
142
1.0
143
1.0
 70
688
 72
0
 73
0
 74
5
  7

 75
16
147
1.0
148
0.0
149
0.0
100
AcDbLayout
  1
Layout1
 70
1
 71
1
 10
0.0
 20
0.0
 11
420.0
 21
297.0
 12
0.0
 22
0.0
 32
0.0
 14
100000000000000000000.0
 24
100000000000000000000.0
 34
100000000000000000000.0
 15
-100000000000000000000.0
 25
-100000000000000000000.0
 35
-100000000000000000000.0
146
0.0
 13
0.0
 23
0.0
 33
0.0
 16
1.0
 26
0.0
 36
0.0
 17
0.0
 27
1.0
 37
0.0
 76
0
330
1B
  0
LAYOUT
  5
22
100
AcDbPlotSettings
  1

  2
none_device
  4

  6

 40
0.0
 41
0.0
 42
0.0
 43
0.0
 44
0.0
 45
0.0
 46
0.0
 47
0.0
 48
0.0
 49
0.0
140
0.0
141
0.0
142
1.0
143
1.0
 70
1712
 72
0
 73
0
 74
0
  7

 75
0
147
1.0
148
0.0
149
0.0
100
AcDbLayout
  1
Model
 70
1
 71
0
 10
0.0
 20
0.0
 11
12.0
 21
9.0
 12
0.0
 22
0.0
 32
0.0
 14
0.0
 24
0.0
 34
0.0
 15
0.0
 25
0.0
 35
0.0
146
0.0
 13
0.0
 23
0.0
 33
0.0
 16
1.0
 26
0.0
 36
0.0
 17
0.0
 27
1.0
 37
0.0
 76
0
330
1F
  0
LAYOUT
  5
26
100
AcDbPlotSettings
  1

  2
none_device
  4

  6

 40
0.0
 41
0.0
 42
0.0
 43
0.0
 44
0.0
 45
0.0
 46
0.0
 47
0.0
 48
0.0
 49
0.0
140
0.0
141
0.0
142
1.0
143
1.0
 70
688
 72
0
 73
0
 74
5
  7

 75
16
147
1.0
148
0.0
149
0.0
100
AcDbLayout
  1
Layout2
 70
1
 71
2
 10
0.0
 20
0.0
 11
12.0
 21
9.0
 12
0.0
 22
0.0
 32
0.0
 14
0.0
 24
0.0
 34
0.0
 15
0.0
 25
0.0
 35
0.0
146
0.0
 13
0.0
 23
0.0
 33
0.0
 16
1.0
 26
0.0
 36
0.0
 17
0.0
 27
1.0
 37
0.0
 76
0
330
23
  0
DICTIONARY
  5
BB
100
AcDbDictionary
281
1
  3
DIMASSOC
350
BE
  3
HIDETEXT
350
BD
  0
DICTIONARYVAR
  5
BD
100
DictionaryVariables
280
0
  1
2
  0
DICTIONARYVAR
  5
BE
100
DictionaryVariables
280
0
  1
1
  0
DICTIONARY
  5
BC
100
AcDbDictionary
281
1
  3
ColorSettings/BackgroundColor
350
BF
  3
ColorSettings/ColorMode
350
C0
  3
Grid/DisplayGrid00
350
C1
  3
Grid/DisplayGrid01
350
C2
  3
Grid/DisplayGrid02
350
C3
  3
Grid/DisplayGrid03
350
C4
  3
Grid/GridSpacingX00
350
C5
  3
Grid/GridSpacingX01
350
C6
  3
Grid/GridSpacingX02
350
C7
  3
Grid/GridSpacingX03
350
C8
  3
Grid/GridSpacingY00
350
C9
  3
Grid/GridSpacingY01
350
CA
  3
Grid/GridSpacingY02
350
CB
  3
Grid/GridSpacingY03
350
CC
  3
Grid/IsometricGrid00
350
CD
  3
Grid/IsometricGrid01
350
CE
  3
Grid/IsometricGrid02
350
CF
  3
Grid/IsometricGrid03
350
D0
  3
Grid/IsometricProjection00
350
D1
  3
Grid/IsometricProjection01
350
D2
  3
Grid/IsometricProjection02
350
D3
  3
Grid/IsometricProjection03
350
D4
  3
Grid/MetaGridSpacingX00
350
D5
  3
Grid/MetaGridSpacingX01
350
D6
  3
Grid/MetaGridSpacingX02
350
D7
  3
Grid/MetaGridSpacingX03
350
D8
  3
Grid/MetaGridSpacingY00
350
D9
  3
Grid/MetaGridSpacingY01
350
DA
  3
Grid/MetaGridSpacingY02
350
DB
  3
Grid/MetaGridSpacingY03
350
DC
  3
MultiPageSettings/Columns
350
DD
  3
MultiPageSettings/GlueMarginsBottom
350
DE
  3
MultiPageSettings/GlueMarginsLeft
350
DF
  3
MultiPageSettings/GlueMarginsRight
350
E0
  3
MultiPageSettings/GlueMarginsTop
350
E1
  3
MultiPageSettings/PrintCropMarks
350
E2
  3
MultiPageSettings/Rows
350
E3
  3
PageSettings/OffsetX
350
E4
  3
PageSettings/OffsetY
350
E5
  3
PageSettings/PageOrientation
350
E6
  3
PageSettings/PaperHeight
350
E7
  3
PageSettings/PaperSizeName
350
E8
  3
PageSettings/PaperWidth
350
E9
  3
PageSettings/PointSize
350
EA
  3
PageSettings/Scale
350
EB
  3
PageSettings/ShowPaperBorders
350
EC
  3
PageTagSettings/EnablePageTags
350
ED
  3
PageTagSettings/TagAlignment
350
EE
  3
PageTagSettings/TagFont
350
EF
  3
PageTagSettings/TagPosition
350
F0
  3
QCADVersion
350
F1
  3
UnitSettings/PaperUnit
350
F2
  3
ViewportCenter
350
F3
  3
ViewportHeight
350
F4
  3
ViewportWidth
350
F5
  0
XRECORD
  5
BF
330
BC
100
AcDbXrecord
280
1
1000
Blanca
  0
XRECORD
  5
C0
330
BC
100
AcDbXrecord
280
1
1000
FullColor
  0
XRECORD
  5
C1
330
BC
100
AcDbXrecord
280
1
290
1
  0
XRECORD
  5
C2
330
BC
100
AcDbXrecord
280
1
290
1
  0
XRECORD
  5
C3
330
BC
100
AcDbXrecord
280
1
290
1
  0
XRECORD
  5
C4
330
BC
100
AcDbXrecord
280
1
290
1
  0
XRECORD
  5
C5
330
BC
100
AcDbXrecord
280
1
1000
auto
  0
XRECORD
  5
C6
330
BC
100
AcDbXrecord
280
1
1000
auto
  0
XRECORD
  5
C7
330
BC
100
AcDbXrecord
280
1
1000
auto
  0
XRECORD
  5
C8
330
BC
100
AcDbXrecord
280
1
1000
auto
  0
XRECORD
  5
C9
330
BC
100
AcDbXrecord
280
1
1000
auto
  0
XRECORD
  5
CA
330
BC
100
AcDbXrecord
280
1
1000
auto
  0
XRECORD
  5
CB
330
BC
100
AcDbXrecord
280
1
1000
auto
  0
XRECORD
  5
CC
330
BC
100
AcDbXrecord
280
1
1000
auto
  0
XRECORD
  5
CD
330
BC
100
AcDbXrecord
280
1
290
0
  0
XRECORD
  5
CE
330
BC
100
AcDbXrecord
280
1
290
0
  0
XRECORD
  5
CF
330
BC
100
AcDbXrecord
280
1
290
0
  0
XRECORD
  5
D0
330
BC
100
AcDbXrecord
280
1
290
0
  0
XRECORD
  5
D1
330
BC
100
AcDbXrecord
280
1
 90
65537
  0
XRECORD
  5
D2
330
BC
100
AcDbXrecord
280
1
 90
65537
  0
XRECORD
  5
D3
330
BC
100
AcDbXrecord
280
1
 90
65537
  0
XRECORD
  5
D4
330
BC
100
AcDbXrecord
280
1
 90
65537
  0
XRECORD
  5
D5
330
BC
100
AcDbXrecord
280
1
1000
auto
  0
XRECORD
  5
D6
330
BC
100
AcDbXrecord
280
1
1000
auto
  0
XRECORD
  5
D7
330
BC
100
AcDbXrecord
280
1
1000
auto
  0
XRECORD
  5
D8
330
BC
100
AcDbXrecord
280
1
1000
auto
  0
XRECORD
  5
D9
330
BC
100
AcDbXrecord
280
1
1000
auto
  0
XRECORD
  5
DA
330
BC
100
AcDbXrecord
280
1
1000
auto
  0
XRECORD
  5
DB
330
BC
100
AcDbXrecord
280
1
1000
auto
  0
XRECORD
  5
DC
330
BC
100
AcDbXrecord
280
1
1000
auto
  0
XRECORD
  5
DD
330
BC
100
AcDbXrecord
280
1
 90
1
  0
XRECORD
  5
DE
330
BC
100
AcDbXrecord
280
1
 40
10.0
  0
XRECORD
  5
DF
330
BC
100
AcDbXrecord
280
1
 40
10.0
  0
XRECORD
  5
E0
330
BC
100
AcDbXrecord
280
1
 40
10.0
  0
XRECORD
  5
E1
330
BC
100
AcDbXrecord
280
1
 40
10.0
  0
XRECORD
  5
E2
330
BC
100
AcDbXrecord
280
1
290
0
  0
XRECORD
  5
E3
330
BC
100
AcDbXrecord
280
1
 90
1
  0
XRECORD
  5
E4
330
BC
100
AcDbXrecord
280
1
 40
0.0
  0
XRECORD
  5
E5
330
BC
100
AcDbXrecord
280
1
 40
0.0
  0
XRECORD
  5
E6
330
BC
100
AcDbXrecord
280
1
1000
Portrait
  0
XRECORD
  5
E7
330
BC
100
AcDbXrecord
280
1
1000
900
  0
XRECORD
  5
E8
330
BC
100
AcDbXrecord
280
1
1000
Personalizado
  0
XRECORD
  5
E9
330
BC
100
AcDbXrecord
280
1
1000
900
  0
XRECORD
  5
EA
330
BC
100
AcDbXrecord
280
1
1000
0.5
  0
XRECORD
  5
EB
330
BC
100
AcDbXrecord
280
1
1000
1:1
  0
XRECORD
  5
EC
330
BC
100
AcDbXrecord
280
1
290
1
  0
XRECORD
  5
ED
330
BC
100
AcDbXrecord
280
1
290
0
  0
XRECORD
  5
EE
330
BC
100
AcDbXrecord
280
1
1000
Inside
  0
XRECORD
  5
EF
330
BC
100
AcDbXrecord
280
1
1000
Arial,10,-1,5,50,0,0,0,0,0
  0
XRECORD
  5
F0
330
BC
100
AcDbXrecord
280
1
1000
TopLeft
  0
XRECORD
  5
F1
330
BC
100
AcDbXrecord
280
1
1000
3.27.1
  0
XRECORD
  5
F2
330
BC
100
AcDbXrecord
280
1
 90
4
  0
XRECORD
  5
F4
330
BC
100
AcDbXrecord
280
1
 40
804.5889044506205892
  0
XRECORD
  5
F5
330
BC
100
AcDbXrecord
280
1
 40
1611.3176730088225668
  0
ENDSEC
  0
EOF
